<?xml version="1.0" encoding="UTF-8" standalone="no"?> <svg width="64" height="64" viewBox="0 0 64 64" fill="none" xmlns="http://www.w3.org/2000/svg">
<path d="M36 43C32.5137 42.9996 29.0947 42.0401 26.1173 40.2264C23.14 38.4126 20.719 35.8147 19.1196 32.7169C17.5201 29.6192 16.8038 26.1411 17.049 22.6634C17.2943 19.1858 18.4916 15.8426 20.51 13C17.9312 14.2939 15.681 16.158 13.93 18.4511C12.179 20.7441 10.9731 23.4058 10.404 26.2343C9.83486 29.0627 9.91734 31.9837 10.6452 34.7755C11.373 37.5673 12.7271 40.1568 14.6048 42.3473C16.4824 44.5379 18.8343 46.2721 21.4819 47.4184C24.1296 48.5647 27.0036 49.0929 29.8858 48.963C32.768 48.8332 35.5828 48.0486 38.1167 46.6689C40.6506 45.2892 42.837 43.3505 44.51 41C41.8681 42.3211 38.9538 43.0061 36 43V43Z" fill="#79BD9A"/>
<path d="M29 24L23 21L26 17L22.22 12.27C18.6285 13.6419 15.5376 16.0711 13.3558 19.2367C11.174 22.4023 10.0039 26.1553 10 30C10.004 31.205 10.1212 32.4069 10.35 33.59L24 33L29 24Z" fill="#A8DBA8"/>
<path d="M34 25L48 29.66C47.9352 25.9642 46.7939 22.3676 44.7157 19.3107C42.6376 16.2539 39.7129 13.8696 36.3 12.45L33 19L34 25Z" fill="#A8DBA8"/>
<path d="M45.73 39H40L40.44 45.15C42.621 43.4999 44.4245 41.4032 45.73 39V39Z" fill="#A8DBA8"/>
<path d="M30 29H6V37H30V29Z" fill="#CFF09E"/>
<path d="M30 41H6V49H30V41Z" fill="#CFF09E"/>
<path d="M30 53H6V61H30V53Z" fill="#CFF09E"/>
<path d="M45 17C44.4067 17 43.8266 16.8241 43.3333 16.4944C42.8399 16.1648 42.4554 15.6962 42.2284 15.1481C42.0013 14.5999 41.9419 13.9967 42.0576 13.4147C42.1734 12.8328 42.4591 12.2982 42.8787 11.8787C43.2982 11.4591 43.8328 11.1734 44.4147 11.0576C44.9967 10.9419 45.5999 11.0013 46.148 11.2284C46.6962 11.4554 47.1648 11.8399 47.4944 12.3333C47.8241 12.8266 48 13.4067 48 14H52C52.0004 12.4922 51.5139 11.0246 50.613 9.81562C49.7121 8.60661 48.4449 7.72079 47 7.29V5C47 4.46957 46.7893 3.96086 46.4142 3.58579C46.0391 3.21071 45.5304 3 45 3C44.4696 3 43.9609 3.21071 43.5858 3.58579C43.2107 3.96086 43 4.46957 43 5V7.29C41.3872 7.76926 40.001 8.81336 39.0952 10.2312C38.1893 11.649 37.8244 13.3456 38.0673 15.0105C38.3101 16.6753 39.1445 18.197 40.4177 19.2969C41.6908 20.3969 43.3175 21.0015 45 21C45.5933 21 46.1734 21.1759 46.6667 21.5056C47.1601 21.8352 47.5446 22.3038 47.7716 22.8519C47.9987 23.4001 48.0581 24.0033 47.9424 24.5853C47.8266 25.1672 47.5409 25.7018 47.1213 26.1213C46.7018 26.5409 46.1672 26.8266 45.5853 26.9424C45.0033 27.0581 44.4001 26.9987 43.852 26.7716C43.3038 26.5446 42.8352 26.1601 42.5056 25.6667C42.1759 25.1734 42 24.5933 42 24H38C37.9996 25.5078 38.4861 26.9754 39.387 28.1844C40.2879 29.3934 41.5551 30.2792 43 30.71V33C43 33.5304 43.2107 34.0391 43.5858 34.4142C43.9609 34.7893 44.4696 35 45 35C45.5304 35 46.0391 34.7893 46.4142 34.4142C46.7893 34.0391 47 33.5304 47 33V30.71C48.6128 30.2307 49.999 29.1866 50.9048 27.7688C51.8107 26.351 52.1756 24.6544 51.9327 22.9895C51.6899 21.3247 50.8555 19.803 49.5823 18.7031C48.3092 17.6031 46.6825 16.9985 45 17Z" fill="#CFF09E"/>
<path d="M25 46C25.5523 46 26 45.5523 26 45C26 44.4477 25.5523 44 25 44C24.4477 44 24 44.4477 24 45C24 45.5523 24.4477 46 25 46Z" fill="#3B8686"/>
<path d="M21 46C21.5523 46 22 45.5523 22 45C22 44.4477 21.5523 44 21 44C20.4477 44 20 44.4477 20 45C20 45.5523 20.4477 46 21 46Z" fill="#3B8686"/>
<path d="M15 44H11C10.7348 44 10.4804 44.1054 10.2929 44.2929C10.1054 44.4804 10 44.7348 10 45C10 45.2652 10.1054 45.5196 10.2929 45.7071C10.4804 45.8946 10.7348 46 11 46H15C15.2652 46 15.5196 45.8946 15.7071 45.7071C15.8946 45.5196 16 45.2652 16 45C16 44.7348 15.8946 44.4804 15.7071 44.2929C15.5196 44.1054 15.2652 44 15 44Z" fill="#3B8686"/>
<path d="M25 58C25.5523 58 26 57.5523 26 57C26 56.4477 25.5523 56 25 56C24.4477 56 24 56.4477 24 57C24 57.5523 24.4477 58 25 58Z" fill="#3B8686"/>
<path d="M21 58C21.5523 58 22 57.5523 22 57C22 56.4477 21.5523 56 21 56C20.4477 56 20 56.4477 20 57C20 57.5523 20.4477 58 21 58Z" fill="#3B8686"/>
<path d="M15 56H11C10.7348 56 10.4804 56.1054 10.2929 56.2929C10.1054 56.4804 10 56.7348 10 57C10 57.2652 10.1054 57.5196 10.2929 57.7071C10.4804 57.8946 10.7348 58 11 58H15C15.2652 58 15.5196 57.8946 15.7071 57.7071C15.8946 57.5196 16 57.2652 16 57C16 56.7348 15.8946 56.4804 15.7071 56.2929C15.5196 56.1054 15.2652 56 15 56Z" fill="#3B8686"/>
<path d="M25 34C25.5523 34 26 33.5523 26 33C26 32.4477 25.5523 32 25 32C24.4477 32 24 32.4477 24 33C24 33.5523 24.4477 34 25 34Z" fill="#3B8686"/>
<path d="M21 34C21.5523 34 22 33.5523 22 33C22 32.4477 21.5523 32 21 32C20.4477 32 20 32.4477 20 33C20 33.5523 20.4477 34 21 34Z" fill="#3B8686"/>
<path d="M15 32H11C10.7348 32 10.4804 32.1054 10.2929 32.2929C10.1054 32.4804 10 32.7348 10 33C10 33.2652 10.1054 33.5196 10.2929 33.7071C10.4804 33.8946 10.7348 34 11 34H15C15.2652 34 15.5196 33.8946 15.7071 33.7071C15.8946 33.5196 16 33.2652 16 33C16 32.7348 15.8946 32.4804 15.7071 32.2929C15.5196 32.1054 15.2652 32 15 32V32Z" fill="#3B8686"/>
<path d="M58 23H52.93C52.6866 21.068 51.7469 19.2911 50.287 18.0024C48.8271 16.7137 46.9473 16.0018 45 16C44.6044 16 44.2178 15.8827 43.8889 15.6629C43.56 15.4432 43.3036 15.1308 43.1522 14.7654C43.0009 14.3999 42.9613 13.9978 43.0384 13.6098C43.1156 13.2219 43.3061 12.8655 43.5858 12.5858C43.8655 12.3061 44.2219 12.1156 44.6098 12.0384C44.9978 11.9613 45.3999 12.0009 45.7654 12.1522C46.1308 12.3036 46.4432 12.56 46.6629 12.8889C46.8827 13.2178 47 13.6044 47 14C47 14.2652 47.1054 14.5196 47.2929 14.7071C47.4804 14.8946 47.7348 15 48 15H52C52.2652 15 52.5196 14.8946 52.7071 14.7071C52.8946 14.5196 53 14.2652 53 14C52.9921 12.409 52.513 10.856 51.6231 9.5372C50.7332 8.21835 49.4724 7.19278 48 6.59V5C48 4.20435 47.6839 3.44129 47.1213 2.87868C46.5587 2.31607 45.7956 2 45 2C44.2044 2 43.4413 2.31607 42.8787 2.87868C42.3161 3.44129 42 4.20435 42 5V6.59C40.878 7.05273 39.8746 7.76228 39.0644 8.66598C38.2542 9.56967 37.6579 10.6443 37.32 11.81L36.84 11.61L36.66 11.53C33.7813 10.3337 30.6622 9.82867 27.5531 10.0554C24.4439 10.2822 21.4312 11.2344 18.7565 12.8357C16.0818 14.437 13.8196 16.6429 12.1513 19.2763C10.483 21.9098 9.45511 24.8976 9.15 28H6C5.73478 28 5.48043 28.1054 5.29289 28.2929C5.10536 28.4804 5 28.7348 5 29V37C5 37.2652 5.10536 37.5196 5.29289 37.7071C5.48043 37.8946 5.73478 38 6 38H10.69C10.9854 38.685 11.3193 39.3527 11.69 40H6C5.73478 40 5.48043 40.1054 5.29289 40.2929C5.10536 40.4804 5 40.7348 5 41V49C5 49.2652 5.10536 49.5196 5.29289 49.7071C5.48043 49.8946 5.73478 50 6 50H30C30.1385 50.0012 30.2754 49.9704 30.4 49.91C31.9645 49.7937 33.5091 49.4881 35 49V56H31V53C31 52.7348 30.8946 52.4804 30.7071 52.2929C30.5196 52.1054 30.2652 52 30 52H6C5.73478 52 5.48043 52.1054 5.29289 52.2929C5.10536 52.4804 5 52.7348 5 53V61C5 61.2652 5.10536 61.5196 5.29289 61.7071C5.48043 61.8946 5.73478 62 6 62H30C30.2652 62 30.5196 61.8946 30.7071 61.7071C30.8946 61.5196 31 61.2652 31 61V58H36C36.2652 58 36.5196 57.8946 36.7071 57.7071C36.8946 57.5196 37 57.2652 37 57V48.28C38.3626 47.6828 39.654 46.9348 40.85 46.05H40.94H58C58.2652 46.05 58.5196 45.9446 58.7071 45.7571C58.8946 45.5696 59 45.3152 59 45.05V24C59 23.7348 58.8946 23.4804 58.7071 23.2929C58.5196 23.1054 58.2652 23 58 23ZM29 60H7V54H29V60ZM43.29 8.25C43.5026 8.18581 43.6877 8.05268 43.8163 7.87162C43.9449 7.69056 44.0095 7.47186 44 7.25V5C44 4.73478 44.1054 4.48043 44.2929 4.29289C44.4804 4.10536 44.7348 4 45 4C45.2652 4 45.5196 4.10536 45.7071 4.29289C45.8946 4.48043 46 4.73478 46 5V7.29C45.9905 7.51186 46.0551 7.73056 46.1837 7.91162C46.3123 8.09268 46.4974 8.22581 46.71 8.29C47.7757 8.61257 48.7317 9.22298 49.4728 10.054C50.2138 10.885 50.7111 11.9045 50.91 13H48.91C48.7233 12.2772 48.3381 11.621 47.7979 11.1057C47.2577 10.5904 46.584 10.2366 45.8532 10.0843C45.1223 9.93199 44.3634 9.98725 43.6624 10.2438C42.9613 10.5004 42.346 10.948 41.8861 11.5361C41.4262 12.1242 41.1401 12.8293 41.0601 13.5715C40.9801 14.3138 41.1094 15.0636 41.4334 15.7362C41.7574 16.4088 42.2632 16.9772 42.8935 17.3773C43.5238 17.7774 44.2535 17.9931 45 18C46.4409 18.0009 47.8334 18.5204 48.9228 19.4634C50.0123 20.4064 50.726 21.71 50.9335 23.1359C51.1411 24.5618 50.8285 26.0148 50.053 27.2292C49.2775 28.4436 48.0909 29.3384 46.71 29.75C46.4974 29.8142 46.3123 29.9473 46.1837 30.1284C46.0551 30.3094 45.9905 30.5281 46 30.75V33C46 33.2652 45.8946 33.5196 45.7071 33.7071C45.5196 33.8946 45.2652 34 45 34C44.7348 34 44.4804 33.8946 44.2929 33.7071C44.1054 33.5196 44 33.2652 44 33V30.71C44.0095 30.4881 43.9449 30.2694 43.8163 30.0884C43.6877 29.9073 43.5026 29.7742 43.29 29.71C42.2243 29.3874 41.2683 28.777 40.5272 27.946C39.7862 27.115 39.2889 26.0955 39.09 25H41.09C41.2767 25.7228 41.6619 26.379 42.2021 26.8943C42.7423 27.4096 43.416 27.7634 44.1468 27.9157C44.8777 28.068 45.6366 28.0128 46.3376 27.7562C47.0387 27.4996 47.654 27.052 48.1139 26.4639C48.5738 25.8758 48.8599 25.1707 48.9399 24.4285C49.0199 23.6862 48.8906 22.9364 48.5666 22.2638C48.2426 21.5912 47.7368 21.0228 47.1065 20.6227C46.4762 20.2226 45.7465 20.0069 45 20C43.4087 20 41.8826 19.3679 40.7574 18.2426C39.6321 17.1174 39 15.5913 39 14C38.9901 13.8101 38.9901 13.6199 39 13.43V13.37C39.1335 12.1897 39.6115 11.0748 40.3744 10.1643C41.1372 9.2538 42.1513 8.58803 43.29 8.25V8.25ZM41.29 43.07L41.07 40H43.92C43.1649 41.1215 42.2823 42.1517 41.29 43.07V43.07ZM37 13.9C37 13.9 37 13.97 37 14C37 16.1217 37.8429 18.1566 39.3431 19.6569C40.8434 21.1571 42.8783 22 45 22C45.3956 22 45.7822 22.1173 46.1111 22.3371C46.44 22.5568 46.6964 22.8692 46.8478 23.2346C46.9991 23.6001 47.0387 24.0022 46.9616 24.3902C46.8844 24.7781 46.6939 25.1345 46.4142 25.4142C46.1345 25.6939 45.7781 25.8844 45.3902 25.9616C45.0022 26.0387 44.6001 25.9991 44.2346 25.8478C43.8692 25.6964 43.5568 25.44 43.3371 25.1111C43.1173 24.7822 43 24.3956 43 24C43 23.7348 42.8946 23.4804 42.7071 23.2929C42.5196 23.1054 42.2652 23 42 23H38C37.7348 23 37.4804 23.1054 37.2929 23.2929C37.1054 23.4804 37 23.7348 37 24C37.0018 24.3345 37.0252 24.6685 37.07 25L34.89 24.27L34 19.16L36.7 13.76L37 13.9ZM34.88 13L32.11 18.56C32.0131 18.7477 31.9781 18.9612 32.01 19.17L33.01 25.17C33.0389 25.3503 33.1166 25.5192 33.2347 25.6585C33.3528 25.7978 33.5068 25.902 33.68 25.96L37.68 27.31C38.5495 29.1739 40.0932 30.639 42 31.41V33C42 33.7956 42.3161 34.5587 42.8787 35.1213C43.4413 35.6839 44.2044 36 45 36C45.3411 35.9963 45.6791 35.9355 46 35.82C45.7408 36.5658 45.4335 37.294 45.08 38H40C39.8629 38.0004 39.7273 38.0291 39.6017 38.0841C39.4762 38.1392 39.3632 38.2195 39.27 38.32C39.176 38.4198 39.1035 38.5379 39.057 38.6669C39.0106 38.796 38.9912 38.9332 39 39.07L39.35 44H37V33C37 32.7348 36.8946 32.4804 36.7071 32.2929C36.5196 32.1054 36.2652 32 36 32H31V29C31 28.7348 30.8946 28.4804 30.7071 28.2929C30.5196 28.1054 30.2652 28 30 28H27.92L29.87 24.49C29.9358 24.3724 29.9771 24.2428 29.9916 24.1088C30.006 23.9749 29.9932 23.8394 29.954 23.7105C29.9148 23.5816 29.8499 23.462 29.7633 23.3588C29.6767 23.2556 29.5701 23.171 29.45 23.11L24.52 20.64L26.8 17.64C26.9346 17.4651 27.0076 17.2507 27.0076 17.03C27.0076 16.8093 26.9346 16.5949 26.8 16.42L23.9 12.78C27.5029 11.7132 31.3493 11.8006 34.9 13.03L34.88 13ZM21.88 13.48L24.74 17L22.2 20.4C22.1126 20.5175 22.0521 20.6527 22.0228 20.7961C21.9934 20.9395 21.9959 21.0876 22.03 21.23C22.0636 21.3711 22.1275 21.5033 22.2173 21.6173C22.3071 21.7312 22.4206 21.8243 22.55 21.89L27.62 24.43L25.62 28H11.16C11.5106 24.8464 12.6887 21.8415 14.5748 19.2898C16.4609 16.7381 18.988 14.7304 21.9 13.47L21.88 13.48ZM7 30H29V36H7V30ZM12.9 38H30C30.2652 38 30.5196 37.8946 30.7071 37.7071C30.8946 37.5196 31 37.2652 31 37V34H35V44H31V41C31 40.7348 30.8946 40.4804 30.7071 40.2929C30.5196 40.1054 30.2652 40 30 40H14.06C13.6292 39.3599 13.2417 38.6917 12.9 38V38ZM29 48H7V42H29V48ZM31 47.84V46H35V46.94C33.7076 47.3993 32.3646 47.7015 31 47.84ZM37 46H37.14L37 46.07V46ZM57 44H43.22C44.4767 42.7173 45.5593 41.2749 46.44 39.71C46.5523 39.5873 46.6345 39.44 46.68 39.28C48.0391 36.7006 48.8108 33.8526 48.94 30.94C50.0199 30.3257 50.9429 29.4698 51.6369 28.4393C52.3308 27.4088 52.7768 26.2316 52.94 25H57V44Z" fill="#3B8686"/>
</svg>
