<?xml version="1.0" encoding="UTF-8" ?>
<!DOCTYPE svg PUBLIC "-//W3C//DTD SVG 1.1//EN" "http://www.w3.org/Graphics/SVG/1.1/DTD/svg11.dtd">
<svg width="472pt" height="429pt" viewBox="0 0 472 429" version="1.1" xmlns="http://www.w3.org/2000/svg">
<g id="#06061aff">
</g>
<g id="#060622ff">
</g>
<g id="#09092cff">
</g>
<g id="#0c0c37ff">
</g>
<g id="#0f0f43ff">
</g>
<g id="#13134eff">
</g>
<g id="#17155bff">
</g>
<g id="#191965ff">
</g>
<g id="#1d1a72ff">
</g>
<g id="#201f7fff">
</g>
<g id="#252290ff">
</g>
<g id="#28259dff">
</g>
<g id="#2b28a7ff">
</g>
<g id="#2e2cafff">
</g>
<g id="#c075f3ff">
<path fill="#c075f3" opacity="1.00" d=" M 196.83 37.42 C 204.56 34.40 213.71 34.66 220.92 38.97 C 226.18 43.22 231.14 48.51 232.44 55.39 C 233.34 62.08 233.18 69.44 229.17 75.19 C 225.72 74.91 224.16 78.06 221.91 79.95 C 218.36 81.13 214.62 81.67 211.17 83.15 C 209.85 83.94 208.51 83.09 207.20 82.77 C 206.76 84.86 206.27 86.95 205.75 89.02 C 204.24 86.99 201.67 84.69 202.85 81.90 C 203.37 80.01 205.58 79.77 207.06 78.95 C 206.55 77.75 206.39 76.45 205.88 75.26 C 207.60 74.31 209.31 73.36 211.02 72.41 L 209.67 72.35 C 213.26 70.65 216.90 68.14 217.91 64.04 C 219.60 59.75 216.55 55.76 214.05 52.56 C 212.65 50.01 210.67 47.43 207.43 47.58 C 201.88 46.67 199.16 52.56 194.45 54.15 C 193.35 52.39 192.26 50.65 191.15 48.90 C 190.50 50.75 189.84 52.59 189.19 54.44 C 188.62 54.54 187.48 54.75 186.91 54.85 C 187.48 51.13 188.01 46.73 191.40 44.42 C 194.34 42.48 197.46 40.80 200.12 38.46 C 199.29 38.20 197.65 37.68 196.83 37.42 Z" />
</g>
<g id="#ca6defff">
<path fill="#ca6def" opacity="1.00" d=" M 250.85 43.88 C 260.78 32.08 281.25 32.70 290.48 45.05 C 292.19 48.21 294.26 51.24 295.20 54.75 C 296.63 61.66 295.89 69.08 292.20 75.20 C 289.45 79.00 286.08 82.61 281.66 84.42 C 280.21 85.34 277.52 85.64 277.73 87.90 C 277.50 103.95 277.74 120.02 277.65 136.08 C 277.77 137.38 277.28 138.54 276.43 139.48 C 274.69 139.36 272.94 139.16 271.20 139.28 C 270.12 140.41 269.25 141.71 268.34 142.97 C 265.40 141.58 262.54 140.04 259.81 138.27 C 261.80 137.94 263.80 137.59 265.80 137.31 C 267.48 133.35 264.89 129.71 264.33 125.88 C 263.93 114.51 265.02 103.02 263.53 91.72 C 262.92 100.46 263.33 109.23 263.14 117.98 C 262.94 122.56 264.17 127.35 262.55 131.76 C 262.36 116.49 262.66 101.23 262.38 85.97 C 251.55 83.14 243.64 72.17 244.34 61.01 C 244.08 54.69 246.75 48.58 250.85 43.88 M 265.00 51.66 C 262.39 54.63 258.25 57.74 259.02 62.19 C 259.28 66.88 263.32 70.20 267.28 72.02 C 272.75 73.69 277.90 69.77 280.55 65.26 C 280.49 62.32 281.35 59.00 279.65 56.36 C 277.03 51.21 270.13 49.24 265.00 51.66 Z" />
</g>
<g id="#b780f1ff">
<path fill="#b780f1" opacity="1.00" d=" M 194.16 38.75 C 194.83 38.41 196.16 37.75 196.83 37.42 C 197.65 37.68 199.29 38.20 200.12 38.46 C 197.46 40.80 194.34 42.48 191.40 44.42 C 188.01 46.73 187.48 51.13 186.91 54.85 C 187.48 54.75 188.62 54.54 189.19 54.44 C 189.84 52.59 190.50 50.75 191.15 48.90 C 192.26 50.65 193.35 52.39 194.45 54.15 C 199.16 52.56 201.88 46.67 207.43 47.58 C 210.67 47.43 212.65 50.01 214.05 52.56 C 211.48 51.56 208.82 50.21 205.97 50.56 C 201.96 51.08 198.73 54.17 197.02 57.69 C 195.36 62.06 196.96 67.41 200.85 70.04 C 203.37 71.95 206.61 72.30 209.67 72.35 L 211.02 72.41 C 209.31 73.36 207.60 74.31 205.88 75.26 C 206.39 76.45 206.55 77.75 207.06 78.95 C 205.58 79.77 203.37 80.01 202.85 81.90 C 201.67 84.69 204.24 86.99 205.75 89.02 C 206.27 86.95 206.76 84.86 207.20 82.77 C 208.51 83.09 209.85 83.94 211.17 83.15 C 214.62 81.67 218.36 81.13 221.91 79.95 C 224.16 78.06 225.72 74.91 229.17 75.19 C 225.88 80.51 220.63 84.41 214.61 86.07 C 213.26 92.99 214.17 100.09 213.26 107.06 C 212.47 112.82 213.23 119.02 210.52 124.35 C 209.77 119.98 209.55 115.41 207.52 111.38 C 206.68 109.70 205.03 108.62 204.12 107.00 C 202.92 99.93 205.59 92.19 201.58 85.69 C 201.08 85.67 200.08 85.63 199.58 85.61 C 188.70 83.32 181.01 71.90 181.41 61.04 C 181.26 52.01 186.56 43.41 194.16 38.75 Z" />
</g>
<g id="#17155cff">
</g>
<g id="#1d1c70ff">
</g>
<g id="#1d1d75ff">
</g>
<g id="#b38ef3ff">
<path fill="#b38ef3" opacity="1.00" d=" M 199.58 85.61 C 200.08 85.63 201.08 85.67 201.58 85.69 C 205.59 92.19 202.92 99.93 204.12 107.00 C 205.03 108.62 206.68 109.70 207.52 111.38 C 209.55 115.41 209.77 119.98 210.52 124.35 C 213.23 119.02 212.47 112.82 213.26 107.06 C 214.17 100.09 213.26 92.99 214.61 86.07 C 214.86 101.38 214.60 116.70 214.72 132.01 C 221.29 139.26 228.89 145.48 235.48 152.72 C 235.30 175.95 235.57 199.18 235.25 222.41 C 235.53 224.46 233.07 223.13 232.23 222.63 C 233.46 222.11 234.11 221.22 234.19 219.97 C 234.62 214.57 234.08 209.15 234.06 203.74 C 232.61 204.13 231.12 204.38 229.66 204.74 C 228.86 199.62 228.16 194.47 226.92 189.43 C 226.06 189.42 225.21 189.42 224.37 189.41 C 224.00 190.62 223.64 191.83 223.28 193.05 C 219.33 188.78 220.31 182.69 219.64 177.38 C 218.72 169.90 219.83 162.34 218.84 154.87 C 218.27 154.71 217.11 154.38 216.53 154.21 C 210.83 148.89 205.34 143.33 199.26 138.41 C 199.85 134.29 199.53 130.12 199.57 125.97 C 199.60 112.52 199.56 99.06 199.58 85.61 Z" />
</g>
<g id="#bd7df3ff">
<path fill="#bd7df3" opacity="1.00" d=" M 263.53 91.72 C 265.02 103.02 263.93 114.51 264.33 125.88 C 264.89 129.71 267.48 133.35 265.80 137.31 C 263.80 137.59 261.80 137.94 259.81 138.27 C 262.54 140.04 265.40 141.58 268.34 142.97 C 269.25 141.71 270.12 140.41 271.20 139.28 C 272.94 139.16 274.69 139.36 276.43 139.48 C 270.46 144.63 264.97 150.28 259.40 155.84 L 258.69 156.56 C 257.12 158.30 257.84 160.91 257.65 163.03 C 258.04 174.20 257.83 185.55 254.60 196.34 C 253.75 194.66 253.12 192.87 252.87 191.01 C 251.98 185.16 250.52 179.42 249.65 173.58 C 247.53 172.76 243.15 172.89 243.69 169.60 C 244.33 162.51 243.15 155.15 245.66 148.32 C 251.33 142.84 256.71 137.07 262.55 131.76 C 264.17 127.35 262.94 122.56 263.14 117.98 C 263.33 109.23 262.92 100.46 263.53 91.72 Z" />
</g>
<g id="#d068f1ff">
<path fill="#d068f1" opacity="1.00" d=" M 344.75 113.18 C 354.53 107.90 367.70 109.48 375.60 117.44 C 379.64 121.60 382.99 127.08 382.76 133.08 C 383.01 138.71 382.89 144.75 379.49 149.53 C 374.25 159.42 361.79 164.24 351.12 161.47 C 349.00 160.87 346.95 160.11 344.88 159.38 C 338.94 166.63 331.42 172.27 325.05 179.11 C 322.19 182.27 318.11 184.73 316.69 188.92 C 316.08 195.18 316.51 201.49 316.48 207.77 C 315.44 208.54 314.41 209.31 313.36 210.07 C 312.52 210.64 311.67 211.20 310.82 211.75 C 309.15 210.55 307.48 209.36 305.80 208.18 C 307.15 206.82 308.75 205.63 309.71 203.94 C 310.49 198.67 309.91 193.30 310.35 188.00 C 309.80 188.08 308.71 188.24 308.17 188.31 C 307.88 192.84 308.27 197.38 307.84 201.90 C 307.89 203.93 305.45 203.70 304.13 204.32 C 303.80 198.74 303.98 193.16 303.72 187.58 C 302.19 186.89 300.67 186.19 299.15 185.50 C 302.77 184.05 306.95 182.70 308.91 179.00 C 311.02 175.13 313.65 171.55 317.10 168.76 C 317.00 168.21 316.90 167.66 316.81 167.11 C 319.06 164.99 320.99 162.56 322.45 159.83 C 326.14 155.82 330.02 151.97 333.91 148.15 C 332.14 144.34 330.88 140.25 331.22 136.00 C 330.64 126.54 336.72 117.68 344.75 113.18 M 354.51 125.76 C 351.39 126.88 348.42 129.03 347.47 132.35 C 344.92 137.96 349.13 145.06 354.98 146.30 C 361.18 147.92 368.12 142.54 367.67 136.06 C 368.32 129.30 360.90 123.55 354.51 125.76 Z" />
</g>
<g id="#81aff6ff">
<path fill="#81aff6" opacity="1.00" d=" M 96.99 125.09 C 100.21 118.38 106.50 113.52 113.56 111.40 C 115.58 112.58 118.56 113.01 119.35 115.56 C 120.54 118.25 121.75 120.94 123.25 123.48 C 121.62 124.16 119.91 124.68 118.41 125.61 C 120.31 125.97 122.24 126.20 124.14 126.56 C 121.66 126.63 119.17 126.76 116.70 126.50 C 111.32 128.72 108.31 134.94 110.19 140.51 C 106.10 138.13 108.33 133.10 107.70 129.33 C 107.56 125.64 105.70 120.03 100.96 121.76 C 101.89 123.20 102.84 124.64 103.80 126.08 C 103.13 127.34 102.45 128.59 101.79 129.86 C 101.24 128.14 100.71 126.41 100.16 124.69 C 99.11 124.82 98.05 124.95 96.99 125.09 Z" />
</g>
<g id="#9eb3f8ff">
<path fill="#9eb3f8" opacity="1.00" d=" M 113.56 111.40 C 118.37 111.78 123.19 111.72 128.01 111.65 C 131.93 113.07 135.57 115.27 138.58 118.16 C 144.76 123.83 147.61 132.74 145.95 140.95 C 145.50 143.60 144.50 146.13 144.21 148.81 C 145.92 151.69 148.50 153.92 150.79 156.32 C 157.84 163.60 165.36 170.41 172.32 177.77 C 174.13 179.90 176.84 177.94 178.78 177.11 C 181.90 180.34 184.55 184.05 188.11 186.83 C 190.85 188.96 193.61 191.06 196.22 193.35 C 194.87 193.29 193.53 193.23 192.19 193.17 C 195.02 195.56 197.09 198.67 199.26 201.65 C 199.13 203.72 199.29 205.79 199.41 207.85 L 199.25 208.85 C 198.13 208.63 196.98 208.51 195.91 208.12 C 189.26 204.78 183.37 200.06 176.59 197.00 C 176.55 197.57 176.47 198.70 176.43 199.26 C 182.74 203.40 189.32 207.14 195.44 211.57 C 196.08 217.69 195.59 223.90 195.56 230.06 C 186.33 225.75 177.91 219.91 169.07 214.89 C 170.99 214.08 172.95 213.35 174.93 212.70 C 173.43 209.69 171.72 206.79 169.99 203.92 C 167.26 199.60 167.37 194.31 166.85 189.41 C 166.39 189.72 165.94 190.03 165.49 190.34 C 164.98 189.50 164.46 188.66 163.95 187.82 C 161.86 192.99 161.95 198.60 161.45 204.06 C 160.77 198.77 161.19 193.45 161.09 188.15 C 160.91 187.94 160.55 187.54 160.37 187.34 C 158.78 185.73 157.15 184.18 155.55 182.59 C 157.45 181.38 158.95 179.72 159.10 177.38 C 156.98 176.76 154.98 175.81 153.22 174.48 C 153.54 173.78 153.87 173.08 154.20 172.39 C 153.75 171.82 153.29 171.26 152.84 170.70 C 153.61 165.27 149.24 161.59 146.19 157.78 C 144.79 156.42 145.33 154.28 144.35 152.73 C 142.57 151.54 139.51 151.56 139.26 148.89 C 138.09 143.99 137.62 138.93 135.97 134.15 C 135.10 134.49 134.23 134.84 133.36 135.20 C 133.26 137.15 133.45 139.16 132.94 141.06 C 132.41 142.83 130.43 143.03 128.93 143.39 C 130.01 141.06 131.11 138.62 131.13 136.00 C 130.61 131.94 128.04 128.06 124.14 126.56 C 122.24 126.20 120.31 125.97 118.41 125.61 C 119.91 124.68 121.62 124.16 123.25 123.48 C 121.75 120.94 120.54 118.25 119.35 115.56 C 118.56 113.01 115.58 112.58 113.56 111.40 Z" />
</g>
<g id="#63b0f9ff">
<path fill="#63b0f9" opacity="1.00" d=" M 100.96 121.76 C 105.70 120.03 107.56 125.64 107.70 129.33 C 108.33 133.10 106.10 138.13 110.19 140.51 C 110.21 140.70 110.26 141.08 110.29 141.26 C 110.57 142.86 109.50 144.95 110.51 146.31 C 113.41 148.06 116.53 149.47 119.15 151.67 C 118.30 152.67 117.46 153.68 116.61 154.68 C 118.65 155.66 120.59 156.88 122.20 158.48 C 116.95 160.48 111.50 159.03 106.15 158.48 C 105.70 158.20 104.81 157.65 104.36 157.37 C 94.76 149.99 91.94 135.92 96.99 125.09 C 98.05 124.95 99.11 124.82 100.16 124.69 C 100.71 126.41 101.24 128.14 101.79 129.86 C 102.45 128.59 103.13 127.34 103.80 126.08 C 102.84 124.64 101.89 123.20 100.96 121.76 Z" />
</g>
<g id="#25248cff">
</g>
<g id="#0f0f41ff">
</g>
<g id="#8db2f9ff">
<path fill="#8db2f9" opacity="1.00" d=" M 133.36 135.20 C 134.23 134.84 135.10 134.49 135.97 134.15 C 137.62 138.93 138.09 143.99 139.26 148.89 C 139.51 151.56 142.57 151.54 144.35 152.73 C 145.33 154.28 144.79 156.42 146.19 157.78 C 149.24 161.59 153.61 165.27 152.84 170.70 C 153.29 171.26 153.75 171.82 154.20 172.39 C 153.87 173.08 153.54 173.78 153.22 174.48 C 154.98 175.81 156.98 176.76 159.10 177.38 C 158.95 179.72 157.45 181.38 155.55 182.59 C 148.22 174.92 140.24 167.86 133.08 160.04 C 131.39 155.91 131.45 151.33 129.84 147.20 C 127.88 146.99 125.92 147.01 123.96 146.85 C 125.61 145.69 127.22 144.47 128.93 143.39 C 130.43 143.03 132.41 142.83 132.94 141.06 C 133.45 139.16 133.26 137.15 133.36 135.20 Z" />
</g>
<g id="#17155dff">
</g>
<g id="#7aaff5ff">
<path fill="#7aaff5" opacity="1.00" d=" M 110.29 141.26 C 113.41 145.42 118.66 148.56 123.96 146.85 C 125.92 147.01 127.88 146.99 129.84 147.20 C 131.45 151.33 131.39 155.91 133.08 160.04 C 124.48 163.65 114.04 164.00 106.15 158.48 C 111.50 159.03 116.95 160.48 122.20 158.48 C 120.59 156.88 118.65 155.66 116.61 154.68 C 117.46 153.68 118.30 152.67 119.15 151.67 C 116.53 149.47 113.41 148.06 110.51 146.31 C 109.50 144.95 110.57 142.86 110.29 141.26 Z" />
</g>
<g id="#b68cf3ff">
<path fill="#b68cf3" opacity="1.00" d=" M 240.89 154.17 C 241.63 151.70 244.00 150.18 245.66 148.32 C 243.15 155.15 244.33 162.51 243.69 169.60 C 243.15 172.89 247.53 172.76 249.65 173.58 C 250.52 179.42 251.98 185.16 252.87 191.01 C 253.12 192.87 253.75 194.66 254.60 196.34 C 257.83 185.55 258.04 174.20 257.65 163.03 C 257.84 160.91 257.12 158.30 258.69 156.56 C 258.73 168.71 258.77 180.86 258.71 193.01 C 258.70 195.49 258.96 197.96 259.29 200.42 C 265.81 204.25 272.48 207.93 278.33 212.78 C 278.29 220.10 278.32 227.42 278.34 234.74 C 284.17 238.32 290.62 240.92 296.09 245.03 C 296.70 251.68 296.27 258.38 296.37 265.05 C 291.53 268.32 286.45 271.19 281.44 274.19 C 279.48 273.30 277.43 272.56 275.69 271.29 C 275.10 268.82 275.22 266.25 275.18 263.74 C 279.16 261.69 282.75 258.95 285.52 255.40 C 285.50 253.53 285.76 251.62 285.31 249.79 C 280.65 243.89 272.85 242.43 266.11 240.12 C 266.78 235.31 269.41 230.92 269.32 225.97 C 269.48 222.29 269.14 217.67 265.54 215.65 C 262.80 214.53 259.75 215.57 257.11 216.52 C 252.51 218.51 247.74 220.31 243.69 223.33 C 243.12 223.75 241.99 224.60 241.42 225.02 C 241.08 208.68 241.54 192.34 241.22 176.00 C 240.24 168.76 240.69 161.45 240.89 154.17 Z" />
</g>
<g id="#ab9ff5ff">
<path fill="#ab9ff5" opacity="1.00" d=" M 216.53 154.21 C 217.11 154.38 218.27 154.71 218.84 154.87 C 219.83 162.34 218.72 169.90 219.64 177.38 C 220.31 182.69 219.33 188.78 223.28 193.05 C 223.64 191.83 224.00 190.62 224.37 189.41 C 225.21 189.42 226.06 189.42 226.92 189.43 C 228.16 194.47 228.86 199.62 229.66 204.74 C 231.12 204.38 232.61 204.13 234.06 203.74 C 234.08 209.15 234.62 214.57 234.19 219.97 C 234.11 221.22 233.46 222.11 232.23 222.63 C 225.64 219.05 219.83 212.72 211.75 213.16 C 210.18 211.18 208.61 209.18 207.04 207.20 C 210.40 205.32 213.87 203.66 217.35 202.01 C 218.08 188.37 217.39 174.69 217.71 161.04 C 217.67 158.73 218.10 156.15 216.53 154.21 Z" />
</g>
<g id="#261975ff">
</g>
<g id="#111145ff">
</g>
<g id="#ac9df3ff">
<path fill="#ac9df3" opacity="1.00" d=" M 198.43 167.00 C 203.93 164.72 209.21 161.97 214.50 159.26 C 214.52 172.83 215.00 186.43 214.39 199.98 C 213.93 200.22 213.02 200.69 212.56 200.92 C 211.88 200.11 211.21 199.29 210.54 198.49 C 211.21 197.86 211.89 197.24 212.57 196.63 C 210.71 193.70 207.92 191.71 204.35 191.65 C 205.83 190.14 207.28 188.61 208.72 187.07 C 207.97 185.80 207.22 184.52 206.47 183.25 C 205.01 184.51 203.93 186.12 203.03 187.81 C 203.19 184.14 202.96 180.46 202.56 176.80 C 202.21 180.60 201.92 184.40 201.47 188.19 C 201.18 185.54 200.97 182.88 200.81 180.23 C 199.99 181.21 199.16 182.19 198.34 183.18 C 198.30 177.78 198.33 172.39 198.43 167.00 Z" />
</g>
<g id="#c079f1ff">
<path fill="#c079f1" opacity="1.00" d=" M 261.17 159.98 C 267.80 161.65 273.54 165.69 279.59 168.74 C 279.65 175.11 279.63 181.47 279.62 187.84 L 281.32 187.80 C 281.33 181.86 281.20 175.91 281.43 169.98 C 285.57 171.72 289.46 174.00 293.45 176.06 C 296.23 177.99 299.28 179.73 302.74 180.01 C 308.71 172.73 315.79 166.47 322.45 159.83 C 320.99 162.56 319.06 164.99 316.81 167.11 C 316.90 167.66 317.00 168.21 317.10 168.76 C 313.65 171.55 311.02 175.13 308.91 179.00 C 306.95 182.70 302.77 184.05 299.15 185.50 C 300.67 186.19 302.19 186.89 303.72 187.58 C 303.98 193.16 303.80 198.74 304.13 204.32 C 305.45 203.70 307.89 203.93 307.84 201.90 C 308.27 197.38 307.88 192.84 308.17 188.31 C 308.71 188.24 309.80 188.08 310.35 188.00 C 309.91 193.30 310.49 198.67 309.71 203.94 C 308.75 205.63 307.15 206.82 305.80 208.18 C 307.48 209.36 309.15 210.55 310.82 211.75 C 300.93 217.97 291.44 224.81 281.49 230.95 C 281.05 224.46 281.22 217.97 281.29 211.48 C 286.28 208.07 291.23 204.60 296.35 201.39 C 298.13 200.34 299.61 198.85 300.36 196.89 C 293.03 199.20 287.40 204.88 280.82 208.63 C 279.26 209.14 277.89 208.02 276.60 207.35 C 271.60 204.26 266.34 201.64 261.42 198.43 C 261.19 185.62 261.74 172.78 261.17 159.98 Z" />
</g>
<g id="#242088ff">
</g>
<g id="#a8a9f8ff">
<path fill="#a8a9f8" opacity="1.00" d=" M 178.78 177.11 C 184.29 174.51 189.47 171.13 195.27 169.21 C 195.50 169.59 195.96 170.35 196.19 170.72 C 196.57 176.45 196.19 182.20 196.33 187.94 C 196.84 187.87 197.87 187.74 198.39 187.68 C 198.36 186.18 198.36 184.68 198.34 183.18 C 199.16 182.19 199.99 181.21 200.81 180.23 C 200.97 182.88 201.18 185.54 201.47 188.19 C 201.92 184.40 202.21 180.60 202.56 176.80 C 202.96 180.46 203.19 184.14 203.03 187.81 C 203.93 186.12 205.01 184.51 206.47 183.25 C 207.22 184.52 207.97 185.80 208.72 187.07 C 207.28 188.61 205.83 190.14 204.35 191.65 C 207.92 191.71 210.71 193.70 212.57 196.63 C 211.89 197.24 211.21 197.86 210.54 198.49 C 211.21 199.29 211.88 200.11 212.56 200.92 C 209.09 202.66 205.71 204.56 202.27 206.36 C 201.30 206.83 200.35 207.33 199.41 207.85 C 199.29 205.79 199.13 203.72 199.26 201.65 C 197.09 198.67 195.02 195.56 192.19 193.17 C 193.53 193.23 194.87 193.29 196.22 193.35 C 193.61 191.06 190.85 188.96 188.11 186.83 C 184.55 184.05 181.90 180.34 178.78 177.11 Z" />
</g>
<g id="#37c1f9ff">
<path fill="#37c1f9" opacity="1.00" d=" M 49.21 179.86 C 52.73 176.16 57.19 173.46 61.98 171.73 C 69.10 170.80 76.80 171.18 82.96 175.24 C 89.65 179.68 95.11 187.14 94.75 195.49 C 97.76 196.80 100.92 197.70 104.10 198.46 C 103.53 198.57 102.38 198.79 101.81 198.90 C 103.17 199.93 104.54 200.95 105.91 201.97 C 105.69 203.22 105.48 204.48 105.26 205.75 C 109.18 206.00 113.34 205.90 116.82 208.02 C 113.15 210.96 108.25 209.19 103.99 210.10 C 99.53 210.99 94.93 209.77 90.53 210.47 C 87.13 213.24 84.20 216.60 80.43 218.92 C 80.20 218.30 79.74 217.08 79.51 216.47 C 77.60 216.09 75.70 215.71 73.79 215.34 C 76.48 213.39 79.02 211.10 80.24 207.92 C 74.28 209.65 66.85 213.36 61.60 208.00 C 65.04 207.78 68.51 207.89 71.93 207.43 C 75.27 205.93 77.77 203.17 79.56 200.04 C 79.99 195.38 78.35 190.30 74.06 187.93 C 70.37 185.33 65.48 186.55 61.95 188.83 C 61.68 187.81 61.40 186.79 61.13 185.77 C 58.37 184.45 54.97 183.15 55.08 179.51 C 53.12 179.63 51.16 179.75 49.21 179.86 Z" />
</g>
<g id="#d268f1ff">
<path fill="#d268f1" opacity="1.00" d=" M 389.39 180.29 C 397.34 172.25 410.81 170.01 420.67 175.83 C 429.12 180.20 433.78 189.71 434.04 198.97 C 433.81 205.69 431.19 212.44 426.32 217.16 C 423.90 219.55 421.09 221.61 417.86 222.74 C 413.54 222.12 409.24 223.26 404.94 222.97 C 399.92 221.72 394.97 219.40 391.42 215.55 C 389.05 213.34 386.54 210.47 383.04 210.45 C 375.69 210.85 369.34 215.37 362.02 215.88 C 356.13 216.26 350.89 219.36 345.07 220.07 C 341.24 220.91 336.68 220.78 333.82 223.86 C 332.66 226.27 332.98 229.13 332.67 231.74 C 329.14 228.12 325.46 224.65 322.03 220.94 C 325.95 220.18 329.95 219.94 333.83 218.96 C 329.32 217.85 324.66 218.05 320.06 217.73 C 324.33 214.58 329.26 212.48 334.43 211.36 C 341.66 209.73 348.51 206.67 355.87 205.61 C 358.25 205.21 360.60 204.61 362.87 203.78 C 368.78 201.49 375.27 201.53 381.23 199.36 C 381.33 198.77 381.53 197.61 381.63 197.02 C 382.34 190.77 384.83 184.72 389.39 180.29 M 403.53 189.73 C 401.28 191.38 399.21 193.44 397.96 195.96 C 395.36 203.07 403.11 210.69 410.18 209.35 C 414.49 207.79 418.54 203.87 418.49 199.00 C 419.03 194.53 415.73 190.63 412.06 188.59 C 409.20 188.11 406.09 188.24 403.53 189.73 Z" />
</g>
<g id="#2fcefaff">
<path fill="#2fcefa" opacity="1.00" d=" M 49.21 179.86 C 51.16 179.75 53.12 179.63 55.08 179.51 C 54.97 183.15 58.37 184.45 61.13 185.77 C 61.40 186.79 61.68 187.81 61.95 188.83 C 55.44 194.00 58.07 205.41 65.98 207.51 C 67.95 207.78 69.95 207.62 71.93 207.43 C 68.51 207.89 65.04 207.78 61.60 208.00 C 66.85 213.36 74.28 209.65 80.24 207.92 C 79.02 211.10 76.48 213.39 73.79 215.34 C 75.70 215.71 77.60 216.09 79.51 216.47 C 79.74 217.08 80.20 218.30 80.43 218.92 C 75.13 223.28 68.03 220.59 61.98 222.48 C 55.04 220.37 49.19 215.55 45.57 209.29 C 44.94 207.58 44.24 205.88 43.62 204.17 C 42.27 195.71 43.41 186.53 49.21 179.86 Z" />
</g>
<g id="#090930ff">
</g>
<g id="#8db5f9ff">
<path fill="#8db5f9" opacity="1.00" d=" M 160.37 187.34 C 160.55 187.54 160.91 187.94 161.09 188.15 C 161.19 193.45 160.77 198.77 161.45 204.06 C 161.95 198.60 161.86 192.99 163.95 187.82 C 164.46 188.66 164.98 189.50 165.49 190.34 C 165.94 190.03 166.39 189.72 166.85 189.41 C 167.37 194.31 167.26 199.60 169.99 203.92 C 171.72 206.79 173.43 209.69 174.93 212.70 C 172.95 213.35 170.99 214.08 169.07 214.89 C 166.77 213.54 164.45 212.23 162.17 210.86 C 161.26 210.32 160.36 209.78 159.46 209.24 C 159.96 201.95 160.54 194.66 160.37 187.34 Z" />
</g>
<g id="#29269dff">
</g>
<g id="#091957ff">
</g>
<g id="#c577f1ff">
<path fill="#c577f1" opacity="1.00" d=" M 360.37 202.32 C 367.48 200.65 374.52 198.69 381.63 197.02 C 381.53 197.61 381.33 198.77 381.23 199.36 C 375.27 201.53 368.78 201.49 362.87 203.78 C 360.60 204.61 358.25 205.21 355.87 205.61 C 348.51 206.67 341.66 209.73 334.43 211.36 C 329.26 212.48 324.33 214.58 320.06 217.73 C 324.66 218.05 329.32 217.85 333.83 218.96 C 329.95 219.94 325.95 220.18 322.03 220.94 C 325.46 224.65 329.14 228.12 332.67 231.74 C 332.98 229.13 332.66 226.27 333.82 223.86 C 336.68 220.78 341.24 220.91 345.07 220.07 C 350.89 219.36 356.13 216.26 362.02 215.88 C 369.34 215.37 375.69 210.85 383.04 210.45 C 386.54 210.47 389.05 213.34 391.42 215.55 C 394.97 219.40 399.92 221.72 404.94 222.97 C 409.24 223.26 413.54 222.12 417.86 222.74 C 411.65 225.47 404.31 225.34 398.04 222.89 C 392.65 221.02 388.32 217.09 385.40 212.25 C 372.72 215.08 360.13 218.36 347.51 221.46 C 344.06 222.76 339.80 222.57 336.91 224.99 C 336.17 245.60 337.25 266.29 336.39 286.91 C 335.89 287.16 334.88 287.68 334.37 287.93 C 335.15 286.35 335.80 284.70 336.45 283.06 C 332.72 285.91 328.45 287.92 323.83 288.80 C 322.84 282.90 320.85 277.26 318.13 271.95 C 316.16 270.69 313.58 269.79 312.86 267.32 C 311.40 263.12 308.91 259.30 307.86 254.97 C 308.58 253.38 309.74 252.06 310.79 250.68 C 310.52 250.29 309.98 249.51 309.71 249.12 C 306.73 249.58 303.75 250.07 300.78 250.54 C 303.06 243.29 312.84 243.15 315.44 236.09 C 315.60 235.06 315.69 234.03 315.82 233.01 C 310.90 234.77 306.36 237.39 301.70 239.72 C 300.34 240.35 298.82 241.29 297.35 240.39 C 293.31 238.56 289.53 236.19 285.48 234.37 C 285.37 233.47 285.27 232.58 285.18 231.70 C 296.14 225.69 306.63 218.86 317.55 212.77 C 322.64 210.66 328.24 210.23 333.52 208.68 C 342.45 206.49 351.44 204.53 360.37 202.32 Z" />
</g>
<g id="#4bb3f8ff">
<path fill="#4bb3f8" opacity="1.00" d=" M 101.81 198.90 C 102.38 198.79 103.53 198.57 104.10 198.46 C 105.48 198.76 106.85 199.09 108.21 199.45 C 116.09 201.78 124.12 203.59 131.96 206.08 C 129.78 205.76 127.58 205.58 125.37 205.47 C 128.02 207.68 131.32 208.91 133.98 211.07 C 135.77 213.86 137.56 218.76 133.67 220.65 C 129.17 220.28 125.14 217.99 120.78 217.00 C 117.81 216.21 114.72 216.40 111.68 216.33 C 107.00 215.25 102.40 213.86 97.72 212.76 C 95.79 212.14 93.85 211.52 91.83 211.28 C 88.87 213.81 86.61 217.11 83.28 219.21 C 76.88 223.20 69.02 224.38 61.70 222.64 L 61.98 222.48 C 68.03 220.59 75.13 223.28 80.43 218.92 C 84.20 216.60 87.13 213.24 90.53 210.47 C 94.93 209.77 99.53 210.99 103.99 210.10 C 108.25 209.19 113.15 210.96 116.82 208.02 C 113.34 205.90 109.18 206.00 105.26 205.75 C 105.48 204.48 105.69 203.22 105.91 201.97 C 104.54 200.95 103.17 199.93 101.81 198.90 Z" />
</g>
<g id="#65b0f9ff">
<path fill="#65b0f9" opacity="1.00" d=" M 125.37 205.47 C 127.58 205.58 129.78 205.76 131.96 206.08 C 137.64 207.87 143.37 209.49 149.16 210.88 L 149.61 211.39 C 151.40 214.54 154.98 215.07 158.23 215.61 C 158.25 216.20 158.27 216.79 158.29 217.38 C 158.97 217.44 159.66 217.50 160.34 217.57 C 160.34 219.17 160.16 220.81 160.60 222.37 C 163.84 225.54 168.36 227.15 171.18 230.83 C 168.27 229.99 165.22 227.41 162.17 229.16 C 161.68 230.53 162.48 231.93 162.68 233.29 C 162.06 233.34 160.83 233.45 160.21 233.50 C 160.36 233.91 160.67 234.72 160.83 235.13 C 161.86 235.60 162.91 236.07 163.94 236.57 C 162.82 236.93 161.45 238.10 162.88 239.08 C 167.89 242.96 175.52 246.56 175.11 253.99 C 175.66 257.83 173.52 261.94 175.33 265.55 C 171.01 268.16 166.84 271.02 162.42 273.45 C 161.54 273.88 160.65 274.26 159.75 274.64 C 161.22 272.61 162.75 270.64 164.36 268.72 C 163.44 262.58 159.20 257.88 156.39 252.56 C 155.42 252.14 154.44 251.72 153.47 251.30 C 151.81 245.67 149.59 240.22 146.95 234.99 C 146.02 233.40 144.78 231.21 142.64 231.42 C 140.43 237.78 140.89 244.62 140.79 251.23 C 140.56 260.16 140.68 269.09 140.52 278.02 C 140.61 280.82 140.35 283.79 141.48 286.43 C 145.04 290.42 151.30 291.10 154.08 295.95 C 149.26 293.28 144.42 290.66 139.51 288.16 C 139.37 266.98 139.42 245.79 139.57 224.61 C 130.70 220.61 120.93 219.22 111.68 216.33 C 114.72 216.40 117.81 216.21 120.78 217.00 C 125.14 217.99 129.17 220.28 133.67 220.65 C 137.56 218.76 135.77 213.86 133.98 211.07 C 131.32 208.91 128.02 207.68 125.37 205.47 Z" />
</g>
<g id="#a4b3f8ff">
<path fill="#a4b3f8" opacity="1.00" d=" M 204.85 208.39 C 205.58 207.99 206.31 207.60 207.04 207.20 C 208.61 209.18 210.18 211.18 211.75 213.16 C 209.51 216.70 206.96 220.62 207.27 224.98 C 208.41 229.98 211.12 234.45 212.36 239.43 C 207.75 241.12 202.95 242.18 198.34 243.86 C 195.66 244.84 193.09 246.06 190.57 247.40 C 190.32 244.56 188.57 242.30 186.63 240.36 C 190.97 237.04 195.77 234.08 198.65 229.28 C 198.54 223.47 198.59 217.66 198.59 211.86 C 200.69 210.73 202.77 209.57 204.85 208.39 Z" />
</g>
<g id="#09092aff">
</g>
<g id="#83b3f9ff">
<path fill="#83b3f9" opacity="1.00" d=" M 149.61 211.39 C 153.10 211.95 156.75 212.09 159.99 213.61 C 160.99 214.18 161.95 214.80 162.94 215.38 C 163.28 216.59 163.70 217.78 164.18 218.94 C 165.81 219.77 167.59 220.23 169.24 221.02 C 170.68 222.17 171.46 223.92 172.50 225.40 C 174.98 226.10 177.81 226.29 179.77 228.15 C 181.66 229.84 183.23 231.84 184.84 233.78 C 183.13 236.02 181.54 238.35 180.09 240.77 C 180.56 240.80 181.48 240.84 181.95 240.87 C 180.51 241.88 178.63 243.43 176.87 242.11 C 172.04 239.34 167.45 236.16 162.68 233.29 C 162.48 231.93 161.68 230.53 162.17 229.16 C 165.22 227.41 168.27 229.99 171.18 230.83 C 168.36 227.15 163.84 225.54 160.60 222.37 C 160.16 220.81 160.34 219.17 160.34 217.57 C 159.66 217.50 158.97 217.44 158.29 217.38 C 158.27 216.79 158.25 216.20 158.23 215.61 C 154.98 215.07 151.40 214.54 149.61 211.39 Z" />
</g>
<g id="#252491ff">
</g>
<g id="#1f196eff">
</g>
<g id="#9bb3f5ff">
<path fill="#9bb3f5" opacity="1.00" d=" M 162.94 215.38 C 172.52 220.82 182.15 226.17 191.66 231.74 C 191.65 232.18 191.64 233.07 191.64 233.51 C 188.48 236.05 185.27 238.54 181.95 240.87 C 181.48 240.84 180.56 240.80 180.09 240.77 C 181.54 238.35 183.13 236.02 184.84 233.78 C 183.23 231.84 181.66 229.84 179.77 228.15 C 177.81 226.29 174.98 226.10 172.50 225.40 C 171.46 223.92 170.68 222.17 169.24 221.02 C 167.59 220.23 165.81 219.77 164.18 218.94 C 163.70 217.78 163.28 216.59 162.94 215.38 Z" />
</g>
<g id="#a9a8f5ff">
<path fill="#a9a8f5" opacity="1.00" d=" M 217.83 238.44 C 214.57 232.04 209.24 224.86 212.74 217.45 C 219.80 216.65 225.45 221.44 230.75 225.32 C 233.42 227.93 236.53 230.99 235.73 235.10 C 231.44 236.64 226.13 236.23 222.70 239.54 C 221.09 239.10 219.46 238.75 217.83 238.44 Z" />
</g>
<g id="#28269eff">
</g>
<g id="#b397f3ff">
<path fill="#b397f3" opacity="1.00" d=" M 246.47 226.26 C 251.32 222.54 256.73 218.30 263.28 219.48 C 263.64 221.98 264.39 224.48 264.13 227.03 C 263.15 230.66 261.43 234.02 260.09 237.53 C 256.65 237.17 253.21 236.74 249.77 236.35 C 246.46 235.99 243.20 235.26 240.00 234.36 C 241.01 230.86 243.62 228.33 246.47 226.26 Z" />
</g>
<g id="#222188ff">
</g>
<g id="#53b1f9ff">
<path fill="#53b1f9" opacity="1.00" d=" M 142.64 231.42 C 144.78 231.21 146.02 233.40 146.95 234.99 C 149.59 240.22 151.81 245.67 153.47 251.30 C 154.44 251.72 155.42 252.14 156.39 252.56 C 159.20 257.88 163.44 262.58 164.36 268.72 C 162.75 270.64 161.22 272.61 159.75 274.64 C 160.65 274.26 161.54 273.88 162.42 273.45 C 162.33 274.47 162.24 275.50 162.14 276.52 C 164.61 276.71 167.27 277.59 169.67 276.62 C 170.91 275.54 171.83 274.18 172.89 272.93 C 175.70 276.42 176.49 280.84 176.85 285.19 C 173.34 287.21 169.98 289.47 166.43 291.41 C 164.06 287.34 160.20 284.21 158.67 279.66 C 157.54 276.24 154.68 273.79 153.34 270.49 C 151.45 265.97 150.19 261.23 148.60 256.61 C 147.52 253.22 144.99 250.64 142.80 247.94 C 142.12 249.03 141.43 250.12 140.79 251.23 C 140.89 244.62 140.43 237.78 142.64 231.42 Z" />
</g>
<g id="#89adefff">
<path fill="#89adef" opacity="1.00" d=" M 162.88 239.08 C 161.45 238.10 162.82 236.93 163.94 236.57 C 168.36 238.90 172.32 241.97 176.67 244.43 C 177.65 249.91 177.26 255.49 177.31 261.03 C 177.58 262.84 176.47 264.29 175.33 265.55 C 173.52 261.94 175.66 257.83 175.11 253.99 C 175.52 246.56 167.89 242.96 162.88 239.08 Z" />
</g>
<g id="#bc87f3ff">
<path fill="#bc87f3" opacity="1.00" d=" M 299.30 245.33 C 304.31 241.73 309.97 238.97 315.44 236.09 C 312.84 243.15 303.06 243.29 300.78 250.54 C 303.75 250.07 306.73 249.58 309.71 249.12 C 309.98 249.51 310.52 250.29 310.79 250.68 C 309.74 252.06 308.58 253.38 307.86 254.97 C 308.91 259.30 311.40 263.12 312.86 267.32 C 313.58 269.79 316.16 270.69 318.13 271.95 C 320.85 277.26 322.84 282.90 323.83 288.80 C 328.45 287.92 332.72 285.91 336.45 283.06 C 335.80 284.70 335.15 286.35 334.37 287.93 C 328.54 290.35 324.00 295.62 317.66 296.67 C 309.65 291.39 301.09 287.00 292.85 282.10 C 290.34 280.50 287.06 279.57 285.70 276.70 C 289.81 274.01 293.77 271.09 297.84 268.34 C 303.24 270.76 308.38 273.68 313.62 276.41 C 315.05 277.03 317.64 278.50 317.88 275.93 C 312.05 271.87 305.57 268.83 299.43 265.29 C 298.60 258.72 298.17 251.81 299.30 245.33 Z" />
</g>
<g id="#a99befff">
<path fill="#a99bef" opacity="1.00" d=" M 250.61 239.95 C 252.88 240.27 255.57 240.15 257.24 242.02 C 257.65 243.55 257.40 245.16 257.34 246.73 C 256.06 248.47 254.20 249.46 252.08 249.75 C 250.76 247.84 249.33 246.01 248.25 243.95 C 247.72 242.00 249.11 240.81 250.61 239.95 Z" />
</g>
<g id="#85b2f9ff">
<path fill="#85b2f9" opacity="1.00" d=" M 180.76 245.45 C 182.40 243.43 184.63 241.99 186.63 240.36 C 188.57 242.30 190.32 244.56 190.57 247.40 C 190.62 249.46 190.41 251.53 190.75 253.58 C 191.44 255.71 193.12 257.32 194.41 259.10 C 193.82 263.88 200.07 264.38 202.04 267.85 C 204.35 272.16 206.70 276.95 205.90 282.00 C 205.28 286.44 206.05 291.03 208.02 295.05 C 209.26 296.83 211.31 297.80 213.03 299.04 C 214.87 298.38 216.73 297.75 218.58 297.12 C 218.85 298.85 218.51 300.88 219.65 302.34 C 221.03 302.75 222.43 301.94 223.79 301.69 C 223.99 307.94 224.35 314.55 228.15 319.81 C 229.04 319.00 229.94 318.19 230.83 317.39 C 233.41 325.38 233.13 333.87 234.36 342.10 C 229.05 345.20 223.89 348.58 218.38 351.32 C 218.39 339.56 218.31 327.79 218.40 316.03 C 218.45 313.56 217.98 311.12 217.41 308.73 C 210.90 305.49 204.84 301.43 198.34 298.17 C 198.21 291.05 198.68 283.92 198.09 276.82 C 191.85 273.76 186.32 269.46 180.53 265.64 C 180.72 258.91 180.26 252.16 180.76 245.45 Z" />
</g>
<g id="#aaa6f3ff">
<path fill="#aaa6f3" opacity="1.00" d=" M 240.48 241.27 C 241.35 241.31 242.21 241.35 243.08 241.40 C 245.98 244.76 248.59 248.35 250.88 252.15 C 250.17 257.01 246.52 260.66 244.11 264.75 C 242.78 264.53 240.51 264.41 240.44 262.62 C 240.21 255.51 240.25 248.38 240.48 241.27 Z" />
</g>
<g id="#aaadf5ff">
<path fill="#aaadf5" opacity="1.00" d=" M 221.51 241.47 C 223.58 241.48 225.64 241.47 227.70 241.48 C 227.64 243.95 226.15 245.90 224.71 247.76 C 222.39 248.03 220.58 246.88 219.23 245.09 C 220.00 243.88 220.73 242.66 221.51 241.47 Z" />
</g>
<g id="#a7adf6ff">
<path fill="#a7adf6" opacity="1.00" d=" M 230.97 243.08 C 232.10 241.68 233.95 241.52 235.60 241.25 C 235.85 249.32 235.89 257.40 235.54 265.47 C 234.99 265.47 233.90 265.48 233.35 265.49 C 230.75 262.00 228.06 258.60 225.41 255.15 C 225.44 250.50 227.91 246.39 230.97 243.08 Z" />
</g>
<g id="#11195cff">
</g>
<g id="#a1b5f8ff">
<path fill="#a1b5f8" opacity="1.00" d=" M 201.00 246.78 C 204.94 245.02 209.19 244.18 213.38 243.21 C 215.87 246.08 218.13 249.39 218.80 253.20 C 218.72 255.49 217.32 257.47 216.39 259.49 C 215.65 260.85 214.90 262.21 214.15 263.56 C 207.72 261.72 201.39 259.48 195.53 256.24 C 195.43 254.58 195.26 252.91 195.36 251.26 C 196.86 249.35 198.94 248.01 201.00 246.78 Z" />
<path fill="#a1b5f8" opacity="1.00" d=" M 211.60 281.15 C 213.34 276.59 215.25 272.08 216.77 267.43 C 221.04 267.49 225.28 267.95 229.52 268.43 C 231.39 270.16 233.11 272.02 234.91 273.82 C 234.57 276.10 233.79 278.41 231.76 279.73 C 227.13 283.18 222.83 287.04 218.21 290.50 C 216.54 291.17 214.69 291.86 212.89 291.27 C 210.43 288.54 210.26 284.44 211.60 281.15 Z" />
</g>
<g id="#b297f5ff">
<path fill="#b297f5" opacity="1.00" d=" M 258.45 250.24 C 259.62 248.11 259.95 244.29 262.96 244.17 C 270.31 243.70 277.53 247.13 282.50 252.44 C 282.49 252.96 282.45 254.00 282.43 254.52 C 277.77 260.28 269.89 261.47 262.92 261.66 C 259.83 261.57 259.42 257.61 258.39 255.40 C 258.43 253.68 258.45 251.96 258.45 250.24 Z" />
</g>
<g id="#45b5f9ff">
<path fill="#45b5f9" opacity="1.00" d=" M 140.79 251.23 C 141.43 250.12 142.12 249.03 142.80 247.94 C 144.99 250.64 147.52 253.22 148.60 256.61 C 150.19 261.23 151.45 265.97 153.34 270.49 C 154.68 273.79 157.54 276.24 158.67 279.66 C 160.20 284.21 164.06 287.34 166.43 291.41 C 163.59 292.73 160.68 294.32 159.64 297.51 C 157.63 297.64 155.74 297.07 154.08 295.95 C 151.30 291.10 145.04 290.42 141.48 286.43 C 140.35 283.79 140.61 280.82 140.52 278.02 C 140.68 269.09 140.56 260.16 140.79 251.23 Z" />
</g>
<g id="#a7a4f1ff">
<path fill="#a7a4f1" opacity="1.00" d=" M 250.09 264.78 C 249.91 261.23 252.14 258.31 254.76 256.19 C 255.35 256.58 256.54 257.38 257.13 257.78 L 257.18 258.09 C 257.39 260.23 257.52 262.38 257.69 264.53 C 255.16 264.62 252.62 264.71 250.09 264.78 Z" />
</g>
<g id="#a3aaeeff">
<path fill="#a3aaee" opacity="1.00" d=" M 217.68 262.22 C 219.10 260.26 220.76 257.56 223.64 258.50 C 225.30 260.54 225.84 263.20 226.63 265.65 C 224.32 265.62 222.01 265.55 219.72 265.37 C 218.80 264.49 218.20 263.35 217.68 262.22 Z" />
</g>
<g id="#615ca9ff">
</g>
<g id="#9db5f9ff">
<path fill="#9db5f9" opacity="1.00" d=" M 202.04 267.85 C 200.07 264.38 193.82 263.88 194.41 259.10 C 200.14 263.27 207.28 264.28 213.73 266.85 C 212.08 274.33 207.10 281.17 208.24 289.10 C 208.28 291.56 209.18 294.20 211.56 295.34 C 214.17 296.02 217.18 295.75 219.27 293.89 C 224.04 290.15 228.77 286.11 234.53 283.98 C 234.97 297.64 234.60 311.32 234.69 324.99 C 234.58 330.69 235.04 336.42 234.36 342.10 C 233.13 333.87 233.41 325.38 230.83 317.39 C 229.94 318.19 229.04 319.00 228.15 319.81 C 224.35 314.55 223.99 307.94 223.79 301.69 C 222.43 301.94 221.03 302.75 219.65 302.34 C 218.51 300.88 218.85 298.85 218.58 297.12 C 216.73 297.75 214.87 298.38 213.03 299.04 C 211.31 297.80 209.26 296.83 208.02 295.05 C 206.05 291.03 205.28 286.44 205.90 282.00 C 206.70 276.95 204.35 272.16 202.04 267.85 Z" />
</g>
<g id="#afa0f5ff">
<path fill="#afa0f5" opacity="1.00" d=" M 262.95 266.58 C 267.13 266.32 271.57 266.15 275.18 263.74 C 275.22 266.25 275.10 268.82 275.69 271.29 C 277.43 272.56 279.48 273.30 281.44 274.19 C 279.94 274.90 279.00 276.26 278.93 277.93 C 278.26 284.74 278.92 291.64 277.58 298.39 C 273.51 300.62 269.65 303.19 265.69 305.60 C 265.62 305.02 265.48 303.85 265.41 303.26 C 264.36 303.06 263.32 302.86 262.28 302.67 C 264.26 301.93 266.23 301.18 268.19 300.39 C 265.79 299.38 263.33 298.55 260.81 297.93 C 262.54 297.43 264.23 296.82 265.96 296.32 C 263.16 296.19 260.17 296.27 257.79 294.56 C 261.23 294.89 264.92 294.89 267.35 292.02 C 268.49 286.66 268.04 281.13 267.00 275.81 C 265.76 272.68 264.06 269.76 262.95 266.58 Z" />
</g>
<g id="#6fb0f5ff">
<path fill="#6fb0f5" opacity="1.00" d=" M 162.14 276.52 C 167.37 273.33 172.83 270.53 178.08 267.38 C 183.56 270.95 189.77 273.82 194.03 278.92 C 182.61 285.20 171.11 291.33 159.64 297.51 C 160.68 294.32 163.59 292.73 166.43 291.41 C 169.98 289.47 173.34 287.21 176.85 285.19 C 176.49 280.84 175.70 276.42 172.89 272.93 C 171.83 274.18 170.91 275.54 169.67 276.62 C 167.27 277.59 164.61 276.71 162.14 276.52 Z" />
</g>
<g id="#aaa9f8ff">
<path fill="#aaa9f8" opacity="1.00" d=" M 242.14 275.97 C 242.82 272.76 244.79 270.14 246.88 267.72 C 248.52 267.63 250.16 267.79 251.80 267.67 C 254.22 267.67 256.64 267.61 259.06 267.62 C 260.76 270.34 262.25 273.21 263.43 276.21 C 265.09 281.10 264.77 286.39 264.36 291.47 C 262.61 291.55 260.86 291.63 259.11 291.66 C 252.16 288.07 247.17 281.77 242.14 275.97 Z" />
</g>
<g id="#0f2167ff">
</g>
<g id="#b39af5ff">
<path fill="#b39af5" opacity="1.00" d=" M 281.83 280.30 C 292.75 286.43 303.56 292.79 314.35 299.16 L 315.43 299.84 C 310.05 301.48 306.23 294.70 300.91 296.84 C 298.04 297.25 298.56 300.37 298.19 302.50 C 300.17 302.62 302.23 302.39 304.14 303.00 C 307.23 307.32 310.00 312.42 309.61 317.91 C 311.59 318.47 313.56 319.18 315.64 319.31 C 317.89 318.83 319.70 317.13 321.99 316.78 C 324.55 316.70 327.05 317.38 329.57 317.77 C 328.34 317.84 327.11 317.93 325.90 318.04 C 323.95 318.17 321.90 318.26 320.24 319.39 C 312.72 323.97 304.82 327.87 297.07 332.04 L 296.10 332.55 C 293.56 328.72 292.45 324.25 291.01 319.96 C 289.31 317.32 286.00 315.88 285.26 312.57 C 287.15 310.98 289.02 309.35 290.86 307.70 C 293.86 309.40 296.81 311.20 299.85 312.83 C 299.45 311.74 299.87 310.07 298.65 309.47 C 292.99 305.94 287.02 302.93 281.40 299.34 C 281.26 292.99 281.14 286.62 281.83 280.30 Z" />
</g>
<g id="#80aef5ff">
<path fill="#80aef5" opacity="1.00" d=" M 177.12 291.22 C 183.18 288.00 189.01 284.29 195.41 281.77 C 195.62 284.02 195.83 286.28 196.06 288.54 C 196.13 292.18 197.62 296.96 193.70 299.19 C 193.93 295.57 193.94 291.94 193.74 288.32 C 191.39 288.26 188.92 287.74 186.70 288.76 C 183.62 290.00 180.61 292.15 177.12 291.22 Z" />
</g>
<g id="#d06aefff">
<path fill="#d06aef" opacity="1.00" d=" M 365.02 292.74 C 369.22 288.06 374.56 283.89 380.96 283.02 C 386.40 281.82 391.99 282.96 397.12 284.87 C 405.38 289.06 411.97 297.48 411.85 307.05 C 412.77 316.86 407.43 326.78 398.81 331.51 C 395.11 330.71 391.61 332.11 388.06 332.84 C 383.32 333.11 378.68 331.68 374.31 330.01 C 377.86 325.89 383.45 330.84 387.45 328.07 C 385.69 325.22 381.81 326.39 379.04 325.67 C 374.29 325.24 371.50 320.82 369.62 316.93 C 371.73 315.59 373.88 314.32 376.08 313.13 C 378.95 318.75 386.65 320.55 391.79 317.01 C 397.05 313.55 396.89 305.45 393.00 301.03 C 389.90 298.27 385.38 297.84 381.46 298.71 C 381.49 298.16 381.56 297.07 381.60 296.53 C 375.54 299.13 372.20 305.61 371.58 311.93 C 370.60 311.82 369.63 311.69 368.66 311.56 C 368.25 309.33 367.80 307.10 367.46 304.86 C 366.19 306.66 364.56 308.07 362.27 308.20 C 362.19 307.40 362.04 305.80 361.96 305.00 C 363.96 303.01 366.07 301.14 368.31 299.42 C 366.86 297.38 365.83 295.10 365.02 292.74 Z" />
</g>
<g id="#a5b4f9ff">
<path fill="#a5b4f9" opacity="1.00" d=" M 241.43 284.12 C 243.70 284.75 245.84 285.80 247.48 287.54 C 250.09 290.21 253.32 292.10 256.58 293.86 C 256.88 294.04 257.49 294.38 257.79 294.56 C 260.17 296.27 263.16 296.19 265.96 296.32 C 264.23 296.82 262.54 297.43 260.81 297.93 C 263.33 298.55 265.79 299.38 268.19 300.39 C 266.23 301.18 264.26 301.93 262.28 302.67 C 263.32 302.86 264.36 303.06 265.41 303.26 C 265.48 303.85 265.62 305.02 265.69 305.60 C 262.93 307.23 260.25 308.98 257.66 310.87 C 257.48 324.23 257.81 337.58 257.47 350.93 C 254.71 349.55 251.98 348.12 249.31 346.58 C 246.69 345.06 244.05 343.57 241.39 342.15 C 241.31 322.80 241.24 303.46 241.43 284.12 Z" />
</g>
<g id="#30cffdff">
<path fill="#30cffd" opacity="1.00" d=" M 83.41 286.45 C 92.95 284.05 103.60 287.00 109.85 294.79 C 110.03 295.00 110.41 295.42 110.60 295.63 C 110.41 296.20 110.02 297.35 109.83 297.92 C 111.10 300.51 112.33 303.12 113.50 305.76 C 117.71 305.89 122.12 305.09 126.12 306.83 C 124.86 308.26 123.51 309.63 122.47 311.24 C 122.74 312.37 123.81 313.07 124.50 313.96 C 126.18 312.65 127.62 310.52 129.99 310.63 C 133.52 310.35 137.00 311.25 140.33 312.32 C 136.13 314.12 131.56 314.67 127.09 315.37 C 128.44 315.77 129.79 316.18 131.15 316.59 C 126.25 317.75 121.15 317.08 116.26 318.05 C 115.93 318.34 115.29 318.93 114.97 319.22 C 114.22 321.64 113.44 324.09 111.98 326.19 C 111.45 324.49 110.92 322.78 110.41 321.08 C 107.54 322.22 104.81 323.92 101.74 324.41 C 98.85 323.89 96.10 322.71 93.18 322.29 C 97.70 319.74 101.94 314.61 100.08 309.12 C 99.26 305.34 96.14 302.76 92.68 301.44 C 96.23 301.24 99.64 300.17 102.85 298.69 C 100.57 297.95 98.29 297.23 96.00 296.55 C 91.42 298.34 86.37 298.74 81.63 297.35 C 85.59 295.21 90.01 294.30 94.35 293.31 C 92.29 292.25 90.20 291.24 88.06 290.34 C 89.67 289.34 91.27 288.31 92.90 287.33 C 89.71 287.42 86.53 287.06 83.41 286.45 Z" />
</g>
<g id="#2ad8feff">
<path fill="#2ad8fe" opacity="1.00" d=" M 75.27 289.94 C 77.79 288.39 80.47 287.01 83.41 286.45 C 86.53 287.06 89.71 287.42 92.90 287.33 C 91.27 288.31 89.67 289.34 88.06 290.34 C 90.20 291.24 92.29 292.25 94.35 293.31 C 90.01 294.30 85.59 295.21 81.63 297.35 C 86.37 298.74 91.42 298.34 96.00 296.55 C 98.29 297.23 100.57 297.95 102.85 298.69 C 99.64 300.17 96.23 301.24 92.68 301.44 C 88.09 300.96 82.77 302.31 80.67 306.84 C 79.91 309.93 80.29 313.14 80.37 316.29 C 82.42 318.37 84.25 320.93 87.11 321.96 C 89.08 322.51 91.16 322.25 93.18 322.29 C 96.10 322.71 98.85 323.89 101.74 324.41 C 104.81 323.92 107.54 322.22 110.41 321.08 C 110.92 322.78 111.45 324.49 111.98 326.19 C 108.70 331.36 103.33 334.57 97.90 337.07 C 91.57 339.15 84.77 337.89 78.66 335.71 C 72.16 332.33 66.61 326.38 64.87 319.14 C 63.86 315.40 63.42 311.52 63.69 307.67 C 65.30 300.58 69.08 293.97 75.27 289.94 M 79.28 308.51 C 78.40 310.14 78.09 313.45 79.59 314.54 C 80.18 312.82 80.66 309.72 79.28 308.51 Z" />
</g>
<g id="#69aff8ff">
<path fill="#69aff8" opacity="1.00" d=" M 186.70 288.76 C 188.92 287.74 191.39 288.26 193.74 288.32 C 193.94 291.94 193.93 295.57 193.70 299.19 C 188.10 302.48 182.98 306.66 176.90 309.08 C 178.73 304.93 183.66 303.69 186.26 300.12 C 183.04 300.45 179.38 303.70 176.75 300.53 C 179.23 298.76 181.54 296.75 183.34 294.28 C 175.07 292.20 168.64 299.96 160.59 300.29 C 165.95 297.00 171.53 294.09 177.12 291.22 C 180.61 292.15 183.62 290.00 186.70 288.76 Z" />
</g>
<g id="#44b6faff">
<path fill="#44b6fa" opacity="1.00" d=" M 160.59 300.29 C 168.64 299.96 175.07 292.20 183.34 294.28 C 181.54 296.75 179.23 298.76 176.75 300.53 C 179.38 303.70 183.04 300.45 186.26 300.12 C 183.66 303.69 178.73 304.93 176.90 309.08 C 176.43 310.07 176.03 311.10 175.60 312.12 C 176.18 312.21 177.33 312.40 177.91 312.50 C 179.14 311.68 180.36 310.86 181.62 310.08 C 183.99 309.68 186.39 309.42 188.78 309.15 C 188.24 310.51 187.69 311.88 187.15 313.24 C 185.40 313.64 183.65 314.04 181.90 314.44 C 184.98 316.49 188.11 318.47 191.26 320.43 C 191.85 318.50 192.45 316.58 193.11 314.68 C 193.47 316.82 193.56 319.01 193.18 321.16 C 192.27 326.50 193.05 332.03 191.43 337.26 C 189.45 335.43 187.84 332.92 185.12 332.14 C 181.15 330.85 177.60 328.09 173.23 328.42 C 172.98 328.30 172.46 328.05 172.21 327.93 C 166.86 325.27 161.76 322.17 156.58 319.20 C 154.58 317.86 152.07 318.38 149.82 318.41 C 143.91 318.87 137.98 318.30 132.07 318.85 C 126.39 319.44 120.67 319.19 114.97 319.22 C 115.29 318.93 115.93 318.34 116.26 318.05 C 121.15 317.08 126.25 317.75 131.15 316.59 C 129.79 316.18 128.44 315.77 127.09 315.37 C 131.56 314.67 136.13 314.12 140.33 312.32 C 137.00 311.25 133.52 310.35 129.99 310.63 C 127.62 310.52 126.18 312.65 124.50 313.96 C 123.81 313.07 122.74 312.37 122.47 311.24 C 123.51 309.63 124.86 308.26 126.12 306.83 C 122.12 305.09 117.71 305.89 113.50 305.76 C 112.33 303.12 111.10 300.51 109.83 297.92 C 110.02 297.35 110.41 296.20 110.60 295.63 C 112.36 297.76 113.61 300.23 114.75 302.73 C 122.11 304.00 129.54 302.61 136.93 302.77 C 142.62 302.84 148.30 302.67 153.98 302.45 C 156.35 302.35 158.41 301.06 160.59 300.29 Z" />
</g>
<g id="#c777f1ff">
<path fill="#c777f1" opacity="1.00" d=" M 360.78 300.28 C 362.12 297.73 363.30 295.07 365.02 292.74 C 365.83 295.10 366.86 297.38 368.31 299.42 C 366.07 301.14 363.96 303.01 361.96 305.00 C 362.04 305.80 362.19 307.40 362.27 308.20 C 364.56 308.07 366.19 306.66 367.46 304.86 C 367.80 307.10 368.25 309.33 368.66 311.56 C 369.63 311.69 370.60 311.82 371.58 311.93 C 372.20 305.61 375.54 299.13 381.60 296.53 C 381.56 297.07 381.49 298.16 381.46 298.71 C 379.06 300.44 376.64 302.52 375.68 305.43 C 374.95 307.96 375.36 310.64 376.08 313.13 C 373.88 314.32 371.73 315.59 369.62 316.93 C 371.50 320.82 374.29 325.24 379.04 325.67 C 381.81 326.39 385.69 325.22 387.45 328.07 C 383.45 330.84 377.86 325.89 374.31 330.01 C 378.68 331.68 383.32 333.11 388.06 332.84 C 391.61 332.11 395.11 330.71 398.81 331.51 C 396.01 333.15 392.89 334.15 389.72 334.80 C 385.22 334.77 380.51 335.21 376.27 333.34 C 371.18 331.51 367.27 327.60 363.76 323.63 C 362.84 321.52 361.97 319.39 361.04 317.29 C 358.81 314.93 355.27 315.36 352.36 314.72 C 350.23 310.05 345.02 309.32 340.81 307.46 C 343.11 306.32 345.43 305.15 347.97 304.65 C 351.39 303.90 354.89 304.76 358.34 304.33 C 360.05 303.77 360.22 301.72 360.78 300.28 Z" />
</g>
<g id="#bc88f3ff">
<path fill="#bc88f3" opacity="1.00" d=" M 300.91 296.84 C 306.23 294.70 310.05 301.48 315.43 299.84 C 317.74 301.26 320.19 302.80 323.04 302.46 C 332.69 301.99 342.37 302.53 352.00 301.66 C 354.78 301.41 357.77 301.89 360.32 300.52 L 360.78 300.28 C 360.22 301.72 360.05 303.77 358.34 304.33 C 354.89 304.76 351.39 303.90 347.97 304.65 C 345.43 305.15 343.11 306.32 340.81 307.46 C 345.02 309.32 350.23 310.05 352.36 314.72 C 355.27 315.36 358.81 314.93 361.04 317.29 C 350.54 317.10 340.06 317.64 329.57 317.77 C 327.05 317.38 324.55 316.70 321.99 316.78 C 319.70 317.13 317.89 318.83 315.64 319.31 C 313.56 319.18 311.59 318.47 309.61 317.91 C 310.00 312.42 307.23 307.32 304.14 303.00 C 302.23 302.39 300.17 302.62 298.19 302.50 C 298.56 300.37 298.04 297.25 300.91 296.84 Z" />
</g>
<g id="#272496ff">
</g>
<g id="#6ab0f9ff">
<path fill="#6ab0f9" opacity="1.00" d=" M 181.62 310.08 C 186.74 307.16 191.30 302.79 196.97 301.11 C 202.62 304.23 208.12 307.67 213.84 310.70 C 213.57 317.12 213.84 323.55 213.77 329.98 C 213.65 335.85 214.26 341.80 212.88 347.57 C 211.59 347.74 210.30 347.92 209.02 348.10 C 205.51 346.10 201.92 344.27 198.24 342.60 C 197.32 335.84 197.95 329.02 197.69 322.23 C 197.11 322.25 195.97 322.28 195.39 322.30 C 195.34 328.25 195.39 334.21 195.32 340.17 C 187.67 336.81 180.59 332.34 173.23 328.42 C 177.60 328.09 181.15 330.85 185.12 332.14 C 187.84 332.92 189.45 335.43 191.43 337.26 C 193.05 332.03 192.27 326.50 193.18 321.16 C 193.56 319.01 193.47 316.82 193.11 314.68 C 192.45 316.58 191.85 318.50 191.26 320.43 C 188.11 318.47 184.98 316.49 181.90 314.44 C 183.65 314.04 185.40 313.64 187.15 313.24 C 187.69 311.88 188.24 310.51 188.78 309.15 C 186.39 309.42 183.99 309.68 181.62 310.08 Z" />
</g>
<g id="#aca7f8ff">
<path fill="#aca7f8" opacity="1.00" d=" M 262.30 311.50 C 267.71 307.81 273.61 304.89 278.99 301.15 C 283.04 303.15 286.91 305.49 290.86 307.70 C 289.02 309.35 287.15 310.98 285.26 312.57 C 286.00 315.88 289.31 317.32 291.01 319.96 C 292.45 324.25 293.56 328.72 296.10 332.55 C 291.33 335.14 286.68 337.97 281.62 339.99 C 281.53 333.73 281.67 327.48 281.53 321.23 C 280.55 321.41 279.58 321.61 278.61 321.82 C 277.47 322.31 276.35 322.83 275.24 323.38 C 274.99 321.18 275.19 318.83 274.25 316.79 C 270.19 315.15 265.30 315.20 262.30 311.50 Z" />
</g>
<g id="#3c9ec5ff">
<path fill="#3c9ec5" opacity="1.00" d=" M 79.28 308.51 C 80.66 309.72 80.18 312.82 79.59 314.54 C 78.09 313.45 78.40 310.14 79.28 308.51 Z" />
</g>
<g id="#7493d6ff">
<path fill="#7493d6" opacity="1.00" d=" M 213.84 310.70 C 215.92 312.16 215.35 314.86 215.49 317.03 C 215.41 328.36 215.50 339.69 215.39 351.02 C 215.00 350.90 214.21 350.68 213.81 350.57 C 212.17 349.83 210.59 348.97 209.02 348.10 C 210.30 347.92 211.59 347.74 212.88 347.57 C 214.26 341.80 213.65 335.85 213.77 329.98 C 213.84 323.55 213.57 317.12 213.84 310.70 Z" />
</g>
<g id="#a8b1f8ff">
<path fill="#a8b1f8" opacity="1.00" d=" M 260.56 312.65 C 261.00 312.36 261.87 311.79 262.30 311.50 C 265.30 315.20 270.19 315.15 274.25 316.79 C 275.19 318.83 274.99 321.18 275.24 323.38 C 276.35 322.83 277.47 322.31 278.61 321.82 C 278.62 328.56 278.78 335.31 278.49 342.05 C 272.48 345.13 266.59 348.46 260.40 351.16 C 260.67 338.33 260.71 325.49 260.56 312.65 Z" />
</g>
<g id="#222087ff">
</g>
<g id="#1f1f7cff">
</g>
<g id="#15155aff">
</g>
<g id="#252492ff">
</g>
<g id="#741ec2ff">
<path fill="#741ec2" opacity="1.00" d=" M 348.99 367.10 C 349.95 366.98 350.91 366.87 351.88 366.76 C 352.43 367.44 352.97 368.14 353.50 368.85 C 353.34 369.38 353.01 370.42 352.85 370.94 C 350.68 368.28 347.38 368.67 344.38 369.30 C 343.86 372.93 343.45 376.96 340.31 379.37 C 333.33 378.49 326.29 378.68 319.29 379.05 C 318.53 378.87 317.00 378.52 316.23 378.34 C 316.69 376.80 317.17 375.26 317.60 373.71 C 317.52 374.66 317.35 376.55 317.27 377.50 C 325.06 378.04 332.88 377.74 340.69 377.59 C 341.32 374.33 341.49 370.92 342.85 367.86 C 344.87 367.43 346.94 367.34 348.99 367.10 Z" />
</g>
<g id="#459dc7ff">
<path fill="#459dc7" opacity="1.00" d=" M 65.50 367.60 C 68.89 367.61 72.30 367.70 75.66 368.22 C 74.19 372.98 73.53 377.93 72.14 382.71 C 71.44 378.15 72.75 373.62 72.83 369.06 C 71.23 368.91 69.60 368.52 68.00 368.82 C 65.85 371.49 65.54 375.16 63.43 377.88 C 63.89 374.40 64.67 370.99 65.50 367.60 Z" />
</g>
<g id="#1ab6f6ff">
<path fill="#1ab6f6" opacity="1.00" d=" M 81.97 386.92 C 87.88 380.38 94.08 374.11 100.14 367.70 C 101.39 367.71 102.64 367.72 103.89 367.74 C 105.60 367.75 107.31 367.76 109.02 367.78 C 111.65 373.41 114.87 378.72 117.64 384.28 C 119.74 388.64 123.01 392.50 123.89 397.37 C 120.29 397.37 116.63 397.54 113.12 396.57 C 112.30 394.99 111.68 393.32 111.05 391.67 C 103.90 391.44 96.75 391.82 89.60 391.49 C 87.53 393.41 85.73 395.69 83.31 397.20 C 79.51 397.56 75.68 397.29 71.86 397.25 C 74.74 393.34 78.41 390.17 81.97 386.92 M 97.94 383.49 C 100.62 383.57 103.30 383.59 105.98 383.56 C 105.37 381.93 104.88 380.27 104.08 378.72 C 101.08 377.32 98.79 381.11 97.94 383.49 Z" />
</g>
<g id="#8734e6ff">
<path fill="#8734e6" opacity="1.00" d=" M 260.14 367.72 C 260.29 367.65 260.57 367.52 260.71 367.46 C 275.36 367.31 290.01 367.31 304.66 367.42 C 304.27 370.54 303.67 373.62 303.22 376.73 C 302.81 376.61 301.98 376.38 301.56 376.26 C 296.64 374.62 291.42 375.07 286.32 374.81 C 286.18 372.62 286.03 370.44 285.88 368.25 C 285.56 368.25 284.90 368.23 284.58 368.23 C 276.48 367.16 268.28 367.45 260.14 367.72 Z" />
</g>
<g id="#8723ceff">
<path fill="#8723ce" opacity="1.00" d=" M 366.00 367.46 C 376.70 366.39 387.74 365.89 398.29 368.36 C 399.87 370.62 401.69 373.15 401.09 376.08 C 400.14 382.70 398.94 389.61 395.01 395.18 C 393.59 395.57 392.18 395.98 390.78 396.40 C 392.45 393.32 395.16 390.97 396.88 387.95 C 397.59 384.61 397.99 381.21 398.90 377.91 C 400.10 374.78 397.95 371.92 396.70 369.21 C 391.46 368.83 386.20 369.19 380.95 368.83 C 375.40 368.57 369.60 368.02 364.32 370.15 C 360.36 371.30 358.37 375.28 356.64 378.68 C 354.82 383.92 355.32 389.61 355.70 395.05 C 356.07 395.15 356.81 395.36 357.18 395.46 L 358.14 397.00 C 356.12 396.49 354.25 395.52 352.86 393.95 C 352.71 387.98 353.79 382.04 355.44 376.33 C 356.84 371.67 360.90 367.53 366.00 367.46 Z" />
</g>
<g id="#5d9bb9ff">
<path fill="#5d9bb9" opacity="1.00" d=" M 25.52 397.42 C 26.16 387.31 29.99 377.71 30.91 367.62 C 34.30 367.68 37.68 367.67 41.06 367.74 C 40.69 369.67 40.28 371.60 39.80 373.51 C 39.25 374.79 38.67 376.06 38.07 377.32 C 38.80 374.35 40.09 371.16 38.48 368.24 C 36.60 368.32 34.72 368.38 32.85 368.63 C 31.16 370.60 31.58 373.60 30.69 375.98 C 28.52 382.38 27.87 389.13 26.16 395.65 C 28.84 395.73 31.53 395.68 34.21 395.55 C 34.91 392.93 35.75 390.36 36.58 387.79 C 36.28 390.98 35.78 394.16 35.18 397.32 C 31.96 397.36 28.74 397.39 25.52 397.42 Z" />
</g>
<g id="#319af5ff">
<path fill="#319af5" opacity="1.00" d=" M 133.07 369.52 C 136.74 367.58 140.96 367.39 145.02 367.42 C 153.54 367.47 162.07 367.36 170.60 367.46 C 170.13 370.11 169.68 372.78 168.87 375.35 C 160.28 375.55 151.65 375.76 143.08 375.34 C 142.47 375.19 141.27 374.89 140.66 374.75 C 144.02 373.99 147.45 373.42 150.60 371.98 C 145.36 368.47 138.83 371.19 133.07 369.52 Z" />
</g>
<g id="#4387f1ff">
<path fill="#4387f1" opacity="1.00" d=" M 174.76 367.73 C 178.07 367.59 181.41 367.68 184.66 368.40 C 183.83 371.85 183.08 375.31 182.41 378.80 C 189.13 375.34 195.49 371.22 202.29 367.88 C 208.31 367.54 214.37 367.62 220.36 368.38 C 211.08 372.95 202.01 377.94 192.94 382.90 C 198.02 386.75 203.64 389.80 208.92 393.37 C 208.55 393.25 207.79 392.99 207.41 392.87 C 207.86 393.68 208.32 394.50 208.78 395.33 C 204.94 395.61 201.11 395.95 197.30 396.43 C 191.83 392.90 186.54 389.08 180.81 385.98 C 180.00 389.43 179.70 393.05 178.31 396.34 C 175.72 398.21 172.10 396.99 169.08 397.29 C 169.53 391.68 171.08 386.26 172.09 380.74 C 173.19 376.45 174.11 372.11 174.76 367.73 Z" />
</g>
<g id="#665deeff">
<path fill="#665dee" opacity="1.00" d=" M 236.60 368.21 C 239.62 367.61 242.72 367.67 245.80 367.73 C 251.12 377.55 256.49 387.34 261.70 397.22 C 257.69 397.09 253.25 398.25 249.64 396.01 C 249.09 394.57 248.55 393.13 248.06 391.68 C 244.93 391.58 241.81 391.52 238.68 391.55 C 241.30 389.77 243.82 387.85 246.24 385.82 C 242.18 385.65 238.13 385.19 234.12 384.55 C 233.96 383.34 233.74 382.13 233.70 380.92 C 235.39 378.61 237.58 376.56 240.11 375.21 C 241.80 375.06 243.50 375.21 245.20 375.28 C 245.22 370.51 239.92 369.95 236.60 368.21 M 235.53 381.55 C 235.44 382.05 235.24 383.04 235.15 383.54 C 237.64 383.50 240.14 383.45 242.63 383.38 C 242.44 381.08 241.26 379.11 240.06 377.21 C 238.55 378.65 237.04 380.10 235.53 381.55 Z" />
</g>
<g id="#6e4fe7ff">
<path fill="#6e4fe7" opacity="1.00" d=" M 259.71 367.92 L 260.14 367.72 C 268.28 367.45 276.48 367.16 284.58 368.23 C 279.85 369.33 274.98 369.41 270.16 369.34 C 270.18 369.90 270.24 371.03 270.26 371.60 C 273.52 372.19 276.42 374.11 277.71 377.25 C 277.29 378.41 276.14 379.12 275.40 380.07 C 275.52 378.89 275.62 377.72 275.72 376.55 C 270.00 376.33 264.28 376.35 258.57 376.34 C 258.97 373.53 259.32 370.72 259.71 367.92 Z" />
</g>
<g id="#7d41eaff">
<path fill="#7d41ea" opacity="1.00" d=" M 284.58 368.23 C 284.90 368.23 285.56 368.25 285.88 368.25 C 286.03 370.44 286.18 372.62 286.32 374.81 C 291.42 375.07 296.64 374.62 301.56 376.26 C 296.32 376.56 291.08 376.46 285.84 376.55 C 284.63 383.55 283.11 390.50 281.29 397.37 C 278.32 397.22 275.12 397.90 272.30 396.87 C 272.06 391.10 274.38 385.66 275.40 380.07 C 276.14 379.12 277.29 378.41 277.71 377.25 C 276.42 374.11 273.52 372.19 270.26 371.60 C 270.24 371.03 270.18 369.90 270.16 369.34 C 274.98 369.41 279.85 369.33 284.58 368.23 Z" />
</g>
<g id="#7c3ecfff">
<path fill="#7c3ecf" opacity="1.00" d=" M 307.67 371.73 C 308.14 370.47 308.06 368.82 309.10 367.89 C 312.27 367.38 315.50 367.66 318.69 367.81 C 318.35 369.78 317.97 371.74 317.60 373.71 C 317.17 375.26 316.69 376.80 316.23 378.34 C 315.92 375.30 315.65 372.26 315.43 369.22 C 313.84 369.14 312.26 369.32 310.68 369.18 C 309.66 377.24 306.46 384.89 305.84 392.99 C 305.41 395.37 308.24 395.56 309.91 395.66 C 312.21 392.29 311.69 387.54 314.70 384.60 C 321.83 383.79 329.16 386.33 336.18 384.11 C 336.58 384.01 337.40 383.82 337.80 383.72 C 338.46 384.11 339.11 384.50 339.77 384.91 C 340.87 388.43 340.02 392.05 339.33 395.55 C 341.39 395.75 343.45 395.84 345.52 395.77 C 346.81 391.28 348.01 386.75 348.63 382.11 C 348.89 379.46 350.17 377.11 351.53 374.89 C 350.89 379.07 350.37 383.27 349.54 387.42 C 348.83 390.77 347.95 394.08 347.14 397.41 C 343.86 397.49 340.57 397.51 337.28 397.50 C 337.74 393.90 338.23 390.30 338.64 386.70 C 330.59 387.13 322.40 385.86 314.45 387.49 C 313.96 390.56 313.25 393.67 313.57 396.81 C 309.86 397.61 306.05 397.59 302.29 397.30 C 304.11 388.78 305.78 380.23 307.67 371.73 Z" />
</g>
<g id="#b200e1ff">
<path fill="#b200e1" opacity="1.00" d=" M 406.38 368.49 C 410.03 367.41 413.85 367.33 417.44 368.67 C 421.13 372.33 425.40 375.31 429.51 378.47 C 432.54 380.77 435.41 383.82 439.49 383.92 C 440.58 378.81 441.52 373.67 442.59 368.55 C 445.62 367.68 448.78 367.32 451.86 368.19 C 450.59 377.80 448.20 387.22 446.30 396.72 C 443.18 396.68 440.02 396.91 436.93 396.36 C 433.42 394.35 430.47 391.51 426.98 389.46 C 422.40 386.52 418.68 382.42 413.82 379.89 C 412.49 385.37 411.20 390.87 410.28 396.43 C 407.42 397.15 404.06 398.26 401.34 396.65 C 401.05 393.93 401.81 391.25 402.41 388.63 C 404.08 381.98 405.03 375.19 406.38 368.49 Z" />
</g>
<g id="#03d0fdff">
<path fill="#03d0fd" opacity="1.00" d=" M 30.69 375.98 C 31.58 373.60 31.16 370.60 32.85 368.63 C 34.72 368.38 36.60 368.32 38.48 368.24 C 40.09 371.16 38.80 374.35 38.07 377.32 C 38.67 376.06 39.25 374.79 39.80 373.51 C 39.55 375.09 39.36 376.67 39.25 378.27 C 39.32 378.39 39.46 378.64 39.53 378.76 C 40.75 379.00 41.97 379.19 43.20 379.41 C 43.34 380.25 43.49 381.10 43.64 381.95 C 48.72 379.68 54.33 379.85 59.75 380.32 C 59.75 380.67 59.75 381.38 59.75 381.74 C 54.97 382.29 49.62 381.73 45.59 384.86 C 50.85 386.04 56.39 384.61 61.53 386.28 C 53.28 386.64 45.02 386.27 36.76 386.56 C 36.72 386.87 36.62 387.48 36.58 387.79 C 35.75 390.36 34.91 392.93 34.21 395.55 C 31.53 395.68 28.84 395.73 26.16 395.65 C 27.87 389.13 28.52 382.38 30.69 375.98 Z" />
</g>
<g id="#0cc5feff">
<path fill="#0cc5fe" opacity="1.00" d=" M 68.00 368.82 C 69.60 368.52 71.23 368.91 72.83 369.06 C 72.75 373.62 71.44 378.15 72.14 382.71 C 71.23 387.36 69.90 391.95 69.47 396.68 C 66.33 396.78 63.19 396.80 60.05 396.80 C 60.31 393.25 60.97 389.77 61.53 386.28 C 56.39 384.61 50.85 386.04 45.59 384.86 C 49.62 381.73 54.97 382.29 59.75 381.74 C 59.75 381.38 59.75 380.67 59.75 380.32 C 54.33 379.85 48.72 379.68 43.64 381.95 C 43.49 381.10 43.34 380.25 43.20 379.41 C 41.97 379.19 40.75 379.00 39.53 378.76 C 39.46 378.64 39.32 378.39 39.25 378.27 C 47.29 378.00 55.47 378.83 63.43 377.88 C 65.54 375.16 65.85 371.49 68.00 368.82 Z" />
</g>
<g id="#576df1ff">
<path fill="#576df1" opacity="1.00" d=" M 211.49 394.55 C 220.00 385.91 228.26 377.02 236.60 368.21 C 239.92 369.95 245.22 370.51 245.20 375.28 C 243.50 375.21 241.80 375.06 240.11 375.21 C 237.58 376.56 235.39 378.61 233.70 380.92 C 233.74 382.13 233.96 383.34 234.12 384.55 C 238.13 385.19 242.18 385.65 246.24 385.82 C 243.82 387.85 241.30 389.77 238.68 391.55 C 234.61 391.53 230.54 391.55 226.47 391.57 C 225.54 392.47 224.63 393.38 223.70 394.28 C 219.78 395.67 215.32 396.84 211.49 394.55 Z" />
</g>
<g id="#9922eaff">
<path fill="#9922ea" opacity="1.00" d=" M 310.68 369.18 C 312.26 369.32 313.84 369.14 315.43 369.22 C 315.65 372.26 315.92 375.30 316.23 378.34 C 317.00 378.52 318.53 378.87 319.29 379.05 C 317.48 379.78 315.70 380.61 313.93 381.44 C 320.89 384.73 328.75 383.51 336.18 384.11 C 329.16 386.33 321.83 383.79 314.70 384.60 C 311.69 387.54 312.21 392.29 309.91 395.66 C 308.24 395.56 305.41 395.37 305.84 392.99 C 306.46 384.89 309.66 377.24 310.68 369.18 Z" />
</g>
<g id="#ae09e7ff">
<path fill="#ae09e7" opacity="1.00" d=" M 344.38 369.30 C 347.38 368.67 350.68 368.28 352.85 370.94 C 352.40 372.25 351.99 373.58 351.53 374.89 C 350.17 377.11 348.89 379.46 348.63 382.11 C 348.01 386.75 346.81 391.28 345.52 395.77 C 343.45 395.84 341.39 395.75 339.33 395.55 C 340.02 392.05 340.87 388.43 339.77 384.91 C 339.40 383.63 338.98 382.38 338.57 381.12 C 339.15 380.54 339.73 379.95 340.31 379.37 C 343.45 376.96 343.86 372.93 344.38 369.30 Z" />
</g>
<g id="#b500e2ff">
<path fill="#b500e2" opacity="1.00" d=" M 364.32 370.15 C 369.60 368.02 375.40 368.57 380.95 368.83 C 386.20 369.19 391.46 368.83 396.70 369.21 C 397.95 371.92 400.10 374.78 398.90 377.91 C 397.99 381.21 397.59 384.61 396.88 387.95 C 395.16 390.97 392.45 393.32 390.78 396.40 L 390.64 396.44 C 379.49 396.04 368.29 396.86 357.18 395.46 C 356.81 395.36 356.07 395.15 355.70 395.05 C 355.32 389.61 354.82 383.92 356.64 378.68 C 358.37 375.28 360.36 371.30 364.32 370.15 M 366.39 375.59 C 366.18 375.89 365.75 376.49 365.54 376.79 C 364.36 380.63 364.07 384.64 364.27 388.64 C 371.98 388.64 379.70 388.66 387.41 388.54 C 389.84 385.06 389.58 380.77 389.69 376.74 C 389.71 376.38 389.73 375.67 389.75 375.31 C 381.96 375.53 374.15 375.11 366.39 375.59 M 365.10 390.16 C 371.87 389.87 378.87 391.09 385.50 389.45 C 380.39 388.52 375.18 388.82 370.03 388.76 C 368.39 389.05 365.90 388.16 365.10 390.16 Z" />
</g>
<g id="#24a7f8ff">
<path fill="#24a7f8" opacity="1.00" d=" M 126.06 386.97 C 127.51 380.95 127.58 373.47 133.07 369.52 C 138.83 371.19 145.36 368.47 150.60 371.98 C 147.45 373.42 144.02 373.99 140.66 374.75 C 141.27 374.89 142.47 375.19 143.08 375.34 C 151.65 375.76 160.28 375.55 168.87 375.35 C 168.73 375.59 168.47 376.06 168.33 376.30 C 158.44 376.48 148.55 376.12 138.66 376.44 C 136.99 379.94 136.24 383.76 135.56 387.55 C 135.86 390.59 137.60 393.16 139.07 395.74 C 135.93 395.77 132.78 395.74 129.64 395.63 C 129.14 395.61 128.14 395.57 127.64 395.55 C 126.27 392.89 125.04 389.99 126.06 386.97 Z" />
</g>
<g id="#8828d1ff">
<path fill="#8828d1" opacity="1.00" d=" M 366.39 375.59 C 374.15 375.11 381.96 375.53 389.75 375.31 C 389.73 375.67 389.71 376.38 389.69 376.74 C 381.64 376.74 373.59 376.54 365.54 376.79 C 365.75 376.49 366.18 375.89 366.39 375.59 Z" />
</g>
<g id="#191d7aff">
</g>
<g id="#262591ff">
</g>
<g id="#00133eff">
</g>
<g id="#a215eeff">
<path fill="#a215ee" opacity="1.00" d=" M 319.29 379.05 C 326.29 378.68 333.33 378.49 340.31 379.37 C 339.73 379.95 339.15 380.54 338.57 381.12 C 338.98 382.38 339.40 383.63 339.77 384.91 C 339.11 384.50 338.46 384.11 337.80 383.72 C 337.40 383.82 336.58 384.01 336.18 384.11 C 328.75 383.51 320.89 384.73 313.93 381.44 C 315.70 380.61 317.48 379.78 319.29 379.05 Z" />
</g>
<g id="#17155aff">
</g>
<g id="#09092bff">
</g>
<g id="#222086ff">
</g>
<g id="#299cfaff">
<path fill="#299cfa" opacity="1.00" d=" M 135.56 387.55 C 135.86 387.84 136.44 388.43 136.74 388.73 C 137.14 389.11 137.93 389.88 138.33 390.26 C 146.76 390.42 155.19 390.34 163.62 390.40 C 163.64 392.12 163.66 393.84 163.68 395.56 C 155.48 395.63 147.27 395.55 139.07 395.74 C 137.60 393.16 135.86 390.59 135.56 387.55 Z" />
</g>
<g id="#5188cbff">
<path fill="#5188cb" opacity="1.00" d=" M 136.74 388.73 C 146.50 388.68 156.27 388.83 166.03 388.62 C 165.70 391.22 165.43 393.83 164.80 396.39 C 162.81 397.76 160.28 397.35 158.01 397.43 C 148.92 397.22 139.83 397.52 130.75 397.23 C 130.47 396.83 129.92 396.03 129.64 395.63 C 132.78 395.74 135.93 395.77 139.07 395.74 C 147.27 395.55 155.48 395.63 163.68 395.56 C 163.66 393.84 163.64 392.12 163.62 390.40 C 155.19 390.34 146.76 390.42 138.33 390.26 C 137.93 389.88 137.14 389.11 136.74 388.73 Z" />
</g>
<g id="#9e39e4ff">
<path fill="#9e39e4" opacity="1.00" d=" M 365.10 390.16 C 365.90 388.16 368.39 389.05 370.03 388.76 C 375.18 388.82 380.39 388.52 385.50 389.45 C 378.87 391.09 371.87 389.87 365.10 390.16 Z" />
</g>
<g id="#191964ff">
</g>
<g id="#6f7ad1ff">
<path fill="#6f7ad1" opacity="1.00" d=" M 207.41 392.87 C 207.79 392.99 208.55 393.25 208.92 393.37 C 209.77 393.77 210.63 394.16 211.49 394.55 C 215.32 396.84 219.78 395.67 223.70 394.28 C 221.52 397.90 217.34 397.57 213.67 397.41 C 208.24 396.96 202.50 398.35 197.30 396.43 C 201.11 395.95 204.94 395.61 208.78 395.33 C 208.32 394.50 207.86 393.68 207.41 392.87 Z" />
</g>
<g id="#7433c1ff">
<path fill="#7433c1" opacity="1.00" d=" M 357.18 395.46 C 368.29 396.86 379.49 396.04 390.64 396.44 C 388.83 397.05 387.00 397.73 385.07 397.72 C 376.94 397.82 368.80 397.41 360.67 397.73 C 360.03 397.55 358.77 397.18 358.14 397.00 L 357.18 395.46 Z" />
</g>
</svg>
